%TF.GenerationSoftware,KiCad,Pcbnew,8.0.4*%
%TF.CreationDate,2025-01-14T19:01:53-06:00*%
%TF.ProjectId,DynaControllersquare,44796e61-436f-46e7-9472-6f6c6c657273,rev?*%
%TF.SameCoordinates,Original*%
%TF.FileFunction,Paste,Bot*%
%TF.FilePolarity,Positive*%
%FSLAX46Y46*%
G04 Gerber Fmt 4.6, Leading zero omitted, Abs format (unit mm)*
G04 Created by KiCad (PCBNEW 8.0.4) date 2025-01-14 19:01:53*
%MOMM*%
%LPD*%
G01*
G04 APERTURE LIST*
%ADD10R,3.150000X1.000000*%
G04 APERTURE END LIST*
D10*
%TO.C,J19*%
X317734412Y-78865780D03*
X312684412Y-78865780D03*
X317734412Y-81405780D03*
X312684412Y-81405780D03*
X317734412Y-83945780D03*
X312684412Y-83945780D03*
X317734412Y-86485780D03*
X312684412Y-86485780D03*
X317734412Y-89025780D03*
X312684412Y-89025780D03*
X317734412Y-91565780D03*
X312684412Y-91565780D03*
X317734412Y-94105780D03*
X312684412Y-94105780D03*
X317734412Y-96645780D03*
X312684412Y-96645780D03*
X317734412Y-99185780D03*
X312684412Y-99185780D03*
X317734412Y-101725780D03*
X312684412Y-101725780D03*
X317734412Y-104265780D03*
X312684412Y-104265780D03*
X317734412Y-106805780D03*
X312684412Y-106805780D03*
X317734412Y-109345780D03*
X312684412Y-109345780D03*
X317734412Y-111885780D03*
X312684412Y-111885780D03*
X317734412Y-114425780D03*
X312684412Y-114425780D03*
%TD*%
%TO.C,J18*%
X266709414Y-78705776D03*
X261659410Y-78705779D03*
X266709415Y-81245772D03*
X261659424Y-81245780D03*
X266709419Y-83785777D03*
X261659412Y-83785778D03*
X266709416Y-86325778D03*
X261659417Y-86325778D03*
X266709418Y-88865784D03*
X261659416Y-88865771D03*
X266709417Y-91405774D03*
X261659410Y-91405782D03*
X266709421Y-93945777D03*
X261659420Y-93945780D03*
X266709414Y-96485771D03*
X261659418Y-96485785D03*
X266709412Y-99025776D03*
X261659411Y-99025779D03*
X266709422Y-101565774D03*
X261659415Y-101565782D03*
X266709416Y-104105785D03*
X261659414Y-104105772D03*
X266709415Y-106645778D03*
X261659416Y-106645778D03*
X266709420Y-109185778D03*
X261659413Y-109185779D03*
X266709408Y-111725776D03*
X261659417Y-111725784D03*
X266709422Y-114265777D03*
X261659418Y-114265780D03*
%TD*%
%TO.C,J18*%
X166792582Y-114134588D03*
X171842586Y-114134585D03*
X166792581Y-111594592D03*
X171842572Y-111594584D03*
X166792577Y-109054587D03*
X171842584Y-109054586D03*
X166792580Y-106514586D03*
X171842579Y-106514586D03*
X166792578Y-103974580D03*
X171842580Y-103974593D03*
X166792579Y-101434590D03*
X171842586Y-101434582D03*
X166792575Y-98894587D03*
X171842576Y-98894584D03*
X166792582Y-96354593D03*
X171842578Y-96354579D03*
X166792584Y-93814588D03*
X171842585Y-93814585D03*
X166792574Y-91274590D03*
X171842581Y-91274582D03*
X166792580Y-88734579D03*
X171842582Y-88734592D03*
X166792581Y-86194586D03*
X171842580Y-86194586D03*
X166792576Y-83654586D03*
X171842583Y-83654585D03*
X166792588Y-81114588D03*
X171842579Y-81114580D03*
X166792574Y-78574587D03*
X171842578Y-78574584D03*
%TD*%
%TO.C,J19*%
X217817576Y-114294588D03*
X222867576Y-114294588D03*
X217817576Y-111754588D03*
X222867576Y-111754588D03*
X217817576Y-109214588D03*
X222867576Y-109214588D03*
X217817576Y-106674588D03*
X222867576Y-106674588D03*
X217817576Y-104134588D03*
X222867576Y-104134588D03*
X217817576Y-101594588D03*
X222867576Y-101594588D03*
X217817576Y-99054588D03*
X222867576Y-99054588D03*
X217817576Y-96514588D03*
X222867576Y-96514588D03*
X217817576Y-93974588D03*
X222867576Y-93974588D03*
X217817576Y-91434588D03*
X222867576Y-91434588D03*
X217817576Y-88894588D03*
X222867576Y-88894588D03*
X217817576Y-86354588D03*
X222867576Y-86354588D03*
X217817576Y-83814588D03*
X222867576Y-83814588D03*
X217817576Y-81274588D03*
X222867576Y-81274588D03*
X217817576Y-78734588D03*
X222867576Y-78734588D03*
%TD*%
M02*
