<?xml version="1.0" encoding="UTF-8" standalone="no"?>
<!-- Created with Inkscape (http://www.inkscape.org/) -->

<svg
   version="1.1"
   id="svg1076"
   width="768"
   height="768"
   viewBox="0 0 768 768"
   sodipodi:docname="DM Logo Black.png.svg"
   inkscape:version="1.1.2 (b8e25be8, 2022-02-05)"
   xmlns:inkscape="http://www.inkscape.org/namespaces/inkscape"
   xmlns:sodipodi="http://sodipodi.sourceforge.net/DTD/sodipodi-0.dtd"
   xmlns="http://www.w3.org/2000/svg"
   xmlns:svg="http://www.w3.org/2000/svg">
  <defs
     id="defs1080" />
  <sodipodi:namedview
     id="namedview1078"
     pagecolor="#ffffff"
     bordercolor="#666666"
     borderopacity="1.0"
     inkscape:pageshadow="2"
     inkscape:pageopacity="0.0"
     inkscape:pagecheckerboard="0"
     showgrid="false"
     inkscape:zoom="0.4588753"
     inkscape:cx="541.54146"
     inkscape:cy="487.06043"
     inkscape:window-width="1312"
     inkscape:window-height="969"
     inkscape:window-x="0"
     inkscape:window-y="0"
     inkscape:window-maximized="0"
     inkscape:current-layer="g1082" />
  <g
     inkscape:groupmode="layer"
     inkscape:label="Image"
     id="g1082">
    <path
       style="fill:#000000;stroke-width:0.256"
       d="m 374.82624,714.95076 c -2.1157,-1.04722 -6.3153,-6.06346 -12.7246,-15.19872 -5.1101,-7.28343 -6.457,-9.02223 -9.1989,-11.87556 -2.7391,-2.85035 -6.5659,-6.02112 -14.6077,-12.10324 -8.1181,-6.13986 -10.9624,-8.50105 -14.3931,-11.94842 -5.0675,-5.0921 -8.8088,-10.98173 -10.5632,-16.62879 l -0.7897,-2.542 -2.231,-0.13443 c -1.3869,-0.0836 -2.7932,-0.34787 -3.7168,-0.69854 -4.2701,-1.62125 -9.1935,-6.45443 -12.8687,-12.63289 -2.5188,-4.23444 -4.664,-10.0823 -5.6508,-15.40413 -0.7103,-3.83073 -0.6594,-14.05394 0.088,-17.6586 l 0.5296,-2.5546 -1.3456,-1.5414 c -3.17,-3.63126 -5.5247,-8.04265 -7.5417,-14.12915 -0.6919,-2.08794 -1.3882,-4.29548 -1.5472,-4.90565 -0.1797,-0.68944 -0.4044,-1.05887 -0.5935,-0.9759 -0.1674,0.0734 -1.3988,0.61333 -2.7364,1.1998 -2.454,1.07596 -9.4784,3.22291 -11.4119,3.48792 -1.3712,0.18795 -2.5913,-0.43612 -3.0638,-1.56705 -0.1955,-0.46784 -0.7046,-3.2478 -1.1313,-6.17764 -0.4267,-2.92987 -0.8625,-5.41049 -0.9684,-5.51253 -0.1059,-0.10204 -2.151,0.0437 -4.5446,0.32382 -5.2432,0.61368 -12.1026,0.55191 -14.5347,-0.13087 l -1.4787,-0.41513 -2.1053,1.82154 c -5.8825,5.08967 -13.3681,8.75892 -21.43329,10.50609 -2.38215,0.51607 -3.38709,0.58173 -8.832,0.57718 -6.53166,-0.005 -8.59503,-0.2741 -12.71253,-1.65507 -4.02712,-1.35068 -7.40052,-4.02992 -8.31409,-6.60329 -0.43696,-1.23085 -0.53156,-1.33087 -1.11738,-1.18139 -3.71914,0.94905 -5.98739,1.22089 -10.24,1.22724 -8.58755,0.0128 -13.72981,-1.42349 -28.55718,-7.97645 -15.73911,-6.9559 -19.04916,-7.93377 -31.34682,-9.26064 -9.11183,-0.98312 -13.0636,-1.60976 -17.060844,-2.70526 -6.73773,-1.84663 -7.56049,-2.92398 -6.14824,-8.05076 1.17325,-4.25918 2.03578,-6.32571 8.1857,-19.61193 3.856194,-8.33088 5.078374,-13.47438 6.957924,-29.28228 1.09104,-9.17617 1.70117,-12.91597 2.82493,-17.31558 1.92184,-7.5242 4.73863,-12.98742 9.26605,-17.97169 l 1.84952,-2.03615 -0.47033,-0.60229 c -1.47769,-1.89227 -2.13727,-4.16929 -2.12162,-7.32441 0.0176,-3.55216 -0.11822,-3.38988 2.83758,-3.38988 h 2.50216 l -0.20015,1.216 c -0.33961,2.06321 -0.26187,4.12452 0.18875,5.00472 0.23069,0.45059 0.84835,1.33768 1.37257,1.97128 1.21304,1.46614 1.79204,2.59945 1.79184,3.50728 -1.8e-4,0.81016 -1.16353,2.38149 -4.15515,5.61234 -2.22502,2.40294 -3.58605,4.33095 -4.89846,6.939 -3.14079,6.24149 -4.5945,12.49106 -6.29847,27.07738 -2.03519,17.42159 -2.62803,19.63274 -8.64975,32.26132 -3.651394,7.6576 -4.974554,11.05946 -6.048504,15.55078 -0.21138,0.88399 -0.0531,0.95201 4.94099,2.12387 5.031264,1.1806 8.905244,1.79733 15.253504,2.42837 11.9823,1.19109 14.49132,1.92174 30.08,8.75945 13.10989,5.75045 18.35587,7.43685 25.29082,8.13015 3.43786,0.3437 6.38926,0.0659 10.99567,-1.03496 1.75592,-0.41963 3.51696,-0.76298 3.91341,-0.76298 1.09551,0 2.1538,1.07628 2.95546,3.0057 1.2375,2.97835 1.85372,3.69707 4.20464,4.90391 3.41433,1.7527 6.72704,2.43929 11.776,2.44065 6.85249,0.003 13.53669,-1.63146 20.09599,-4.91054 3.6979,-1.84858 5.7018,-3.28021 8.7384,-6.24282 2.0718,-2.02135 3.0235,-2.7809 3.4843,-2.7809 0.3487,0 1.8517,0.4032 3.3401,0.896 2.2524,0.74578 3.0765,0.896 4.9157,0.896 3.5303,0 9.4772,-0.51348 11.3415,-0.97928 l 1.716,-0.42872 0.081,-0.9922 c 0.1004,-1.22381 -0.7644,-5.36 -1.7997,-8.6078 -0.4264,-1.3376 -1.958,-5.3696 -3.4035,-8.96 -4.5128,-11.20896 -5.3563,-14.44355 -5.3407,-20.48 0.01,-2.43658 0.1445,-4.26194 0.402,-5.31251 l 0.3922,-1.60054 -1.2418,-0.89219 c -2.2125,-1.58952 -3.429,-3.68442 -4.3868,-7.55476 -0.7128,-2.8801 -0.7648,-8.7895 -0.1065,-12.10237 1.1497,-5.78599 4.0518,-11.59389 7.7907,-15.59104 l 1.1484,-1.22773 -0.3247,-2.08712 c -0.4574,-2.94005 -0.185,-8.06866 0.61,-11.48774 0.8086,-3.4773 1.5093,-5.28986 3.5854,-9.2738 0.9337,-1.7918 1.6976,-3.42633 1.6976,-3.63231 0,-0.25301 -0.3945,-0.42796 -1.216,-0.53921 -6.6622,-0.90235 -12.6697,-2.46288 -16.9592,-4.40538 l -1.6633,-0.7532 3.6881,-0.15775 c 4.4127,-0.18872 6.501,0.0448 11.4868,1.2845 3.0043,0.74701 4.3122,0.94495 6.4556,0.97695 3.4637,0.0517 3.2943,0.0179 3.6137,0.71903 0.3279,0.71977 -0.063,1.58121 -2.2255,4.89797 -3.6747,5.6375 -5.9962,12.6305 -5.9962,18.06221 0,1.93316 0.4785,5.08889 0.9683,6.38674 0.2155,0.57098 0.055,0.83891 -1.537,2.56 -6.7279,7.2748 -9.6424,16.90652 -7.7079,25.4731 0.7723,3.41998 1.4533,4.37463 4.3922,6.15764 l 1.7084,1.0365 -0.064,1.22624 c -0.035,0.6744 -0.3027,2.15971 -0.594,3.30065 -0.5991,2.3465 -0.7131,6.37494 -0.2587,9.14412 0.6785,4.13568 1.4326,6.28989 6.6538,19.00782 2.6566,6.47114 3.3373,9.51693 3.9908,17.85618 0.4675,5.9649 0.7629,8.29289 1.3515,10.65006 0.5276,2.11269 0.6679,2.16796 3.5851,1.41176 2.4002,-0.62213 5.1932,-1.68995 10.7472,-4.1088 6.7461,-2.93803 8.9521,-3.44624 19.5167,-4.49628 14.7638,-1.46739 19.2462,-2.85079 24.448,-7.54544 1.408,-1.27074 2.8192,-2.3807 3.136,-2.46662 0.8557,-0.23203 1.7414,0.0703 2.718,0.92785 1.1412,1.00191 2.4501,1.53147 3.7854,1.53147 2.5431,0 8.2113,-2.22694 11.3146,-4.44534 4.9821,-3.56144 9.2401,-9.51874 10.9433,-15.31069 0.5551,-1.888 0.612,-1.97049 1.4669,-2.13087 2.0137,-0.37778 5.2703,-1.79423 7.5136,-3.26807 3.1904,-2.0961 6.912,-5.89227 11.2349,-11.4602 l 3.4726,-4.47283 1.4021,-0.0752 1.402,-0.0752 1.7459,2.93422 c 4.8789,8.19968 10.8448,14.06891 16.5367,16.26885 1.056,0.40814 2.3423,0.82086 2.8584,0.91714 0.9128,0.17024 0.95,0.22206 1.3598,1.89471 1.0596,4.32379 3.9147,9.15149 7.7635,13.12753 4.6347,4.78789 9.5946,7.37592 14.1357,7.37592 1.3707,0 1.8526,-0.14034 3.4191,-0.99566 2.8213,-1.54048 2.6252,-1.55978 4.9134,0.48348 4.6258,4.13066 9.2712,6.42752 15.2464,7.53828 1.179,0.21919 5.3514,0.80161 9.2719,1.29428 11.7355,1.47474 13.9602,2.06728 21.7998,5.80596 6.9334,3.30649 11.6196,5.00579 12.1346,4.40015 0.5065,-0.59566 2.1414,-9.17668 2.7112,-14.22994 0.9043,-8.01917 1.5939,-10.39496 5.6311,-19.40055 1.2309,-2.7456 2.6417,-6.0288 3.1352,-7.296 2.8725,-7.3771 3.5649,-12.94625 2.2439,-18.048 -0.3464,-1.3376 -0.632,-2.68096 -0.6349,-2.98524 -0.01,-0.64581 0.873,-1.40421 3.0381,-2.62124 1.7895,-1.00595 2.5841,-2.0384 3.3586,-4.36416 1.2938,-3.88475 1.2578,-8.89561 -0.1013,-14.09943 -1.3362,-5.11616 -3.3611,-8.78643 -6.5387,-11.85177 -2.1227,-2.04775 -2.1651,-2.25316 -1.1484,-5.56905 0.6037,-1.96913 0.6492,-2.42481 0.5213,-5.22911 -0.2711,-5.94319 -2.341,-12.01362 -6.5182,-19.11572 -1.4745,-2.50704 -1.6959,-3.11645 -1.3541,-3.72711 0.2316,-0.41372 0.7846,-0.45327 6.3516,-0.45448 4.939,0 6.4872,-0.0888 8.146,-0.46202 3.5517,-0.79903 6.3111,-1.71011 9.162,-3.02516 1.519,-0.70069 3.3229,-1.34044 4.0085,-1.42164 1.3887,-0.16446 3.0855,0.0721 3.0855,0.4301 0,0.43787 -3.1978,2.82289 -5.12,3.81865 -2.4578,1.27325 -5.7236,2.41936 -9.5936,3.36684 -2.71,0.6635 -3.519,0.75054 -6.976,0.75054 -2.1507,0 -3.9104,0.0415 -3.9104,0.0922 0,0.0507 0.7493,1.65038 1.6651,3.55484 1.8646,3.87745 3.2095,7.73373 3.8757,11.11239 0.5473,2.77635 0.62,8.99735 0.1303,11.16562 l -0.3335,1.47702 1.1664,1.29731 c 5.4676,6.08133 8.5308,15.67426 7.5898,23.76873 -0.7613,6.54817 -2.5385,10.24035 -5.5757,11.58389 -0.8141,0.36012 -1.0845,0.61141 -0.9955,0.92521 0.5199,1.83353 0.7579,3.96711 0.7476,6.7028 -0.021,5.48393 -1.2662,10.00812 -5.2986,19.24465 -2.687,6.1549 -3.4644,8.11589 -4.4894,11.32428 -0.7032,2.20114 -1.5542,5.64135 -1.5542,6.28291 0,0.25285 6.0709,1.42712 9.472,1.83217 1.3376,0.15928 3.6992,0.22876 5.248,0.15434 2.3486,-0.11282 3.1464,-0.26665 4.8067,-0.9268 1.0948,-0.43535 2.2753,-0.79155 2.6232,-0.79155 0.3525,0 1.058,0.37591 1.5934,0.84902 0.5284,0.46697 2.1703,1.92702 3.6487,3.24457 4.6875,4.17749 8.9042,6.47225 15.104,8.21968 5.0632,1.42709 8.1239,1.86153 13.056,1.8531 3.9774,-0.007 4.7551,-0.0809 6.932,-0.66109 2.8774,-0.76682 5.2155,-1.88416 6.3804,-3.04904 0.4581,-0.45816 1.3253,-1.89376 1.927,-3.19017 1.3386,-2.88404 1.8632,-3.30654 3.8199,-3.07658 0.7592,0.0892 2.8582,0.53671 4.6645,0.99438 3.0683,0.77742 3.5703,0.83213 7.6362,0.8321 7.4834,-7e-5 11.6891,-1.2185 27.392,-7.93579 15.6065,-6.6761 18.5611,-7.50748 29.1451,-8.20147 3.2598,-0.21374 7.1365,-0.56264 8.6149,-0.77532 4.1695,-0.59984 11.7019,-1.95541 12.0455,-2.16774 0.23,-0.14213 0.065,-0.99929 -0.645,-3.35529 -2.6503,-8.79155 -3.786,-11.8093 -7.1303,-18.94648 -3.5121,-7.49535 -4.2781,-10.91259 -6.0586,-27.02751 -1.4301,-12.9433 -2.0666,-16.65459 -3.7575,-21.91124 -1.7723,-5.50956 -3.1299,-7.8347 -7.3519,-12.59113 -2.977,-3.3538 -4.1324,-5.26415 -3.8542,-6.37266 0.094,-0.37435 0.8434,-1.42274 1.6653,-2.32975 0.9859,-1.08782 1.5955,-2.02225 1.7911,-2.74535 0.3613,-1.33545 0.1848,-3.68161 -0.4939,-6.56517 l -0.5039,-2.1409 2.5259,0.10145 c 1.3892,0.0558 2.5853,0.16082 2.6578,0.23337 0.073,0.0725 0.3219,1.22071 0.5541,2.55148 0.74,4.24161 0.2026,7.87146 -1.5599,10.53468 l -0.6672,1.00825 2.4167,2.99029 c 2.5413,3.14445 3.7509,4.91796 4.8865,7.16454 2.8806,5.69885 4.6024,12.62324 5.7735,23.21777 1.3429,12.14925 1.6003,14.26767 2.0838,17.152 1.074,6.40635 2.3721,10.48274 5.9074,18.55101 3.0067,6.86206 4.0792,9.56616 5.0293,12.68099 2.3402,7.67137 2.5055,10.05701 0.7965,11.49499 -1.806,1.51967 -8.9145,2.77322 -21.231,3.74402 -6.7944,0.53553 -8.4822,0.75459 -11.904,1.54489 -4.8712,1.12509 -9.8441,2.89817 -18.816,6.70894 -11.3195,4.80788 -15.8728,6.41761 -21.632,7.64746 -2.4667,0.52675 -3.4988,0.60063 -8.32,0.59541 -4.3614,-0.005 -5.9026,-0.1002 -7.424,-0.45999 -3.6713,-0.86812 -3.3908,-0.90931 -4.0986,0.60173 -1.9141,4.08684 -7.8881,7.02475 -16.0714,7.90364 -12.7763,1.37219 -26.8501,-3.33506 -35.6702,-11.93062 l -1.4402,-1.40355 -2.0158,0.47256 c -3.0817,0.7224 -10.6423,0.65559 -14.9438,-0.13205 -1.76,-0.32228 -3.6173,-0.64809 -4.1274,-0.72402 l -0.9275,-0.13809 -0.2887,1.24534 c -0.1588,0.68493 -0.5245,2.74294 -0.8125,4.57334 -0.6732,4.27843 -1.1874,6.3638 -1.9363,7.85418 -0.7409,1.47428 -1.4579,2.00182 -2.7207,2.00182 -1.168,0 -6.3116,-1.82843 -10.6309,-3.77915 -1.7271,-0.77993 -3.1776,-1.3719 -3.2234,-1.31545 -0.046,0.0564 -0.6268,1.7154 -1.2911,3.6866 -2.1773,6.46188 -4.5788,10.86405 -7.775,14.25254 l -1.7691,1.87546 0.4556,1.77741 c 0.8319,3.2459 1.0687,6.01241 0.9354,10.92667 -0.092,3.40395 -0.2839,5.48213 -0.6928,7.51992 -1.7809,8.8737 -6.3617,17.57663 -12.2115,23.2002 -3.5607,3.42301 -6.574,4.8914 -10.1239,4.93343 l -2.2278,0.0264 -0.8204,2.304 c -1.1612,3.26134 -3.7773,8.28508 -5.7992,11.136 -0.9487,1.3376 -3.2224,3.93533 -5.0528,5.77272 -3.4534,3.46665 -5.5672,5.15226 -15.1895,12.11257 -7.3031,5.28276 -10.0041,7.44891 -13.4449,10.78272 -3.1636,3.06506 -4.9318,5.22823 -9.3155,11.39599 -3.7919,5.33509 -6.2057,8.24136 -10.3623,12.47647 -4.204,4.28334 -5.4952,4.90122 -7.8286,3.74625 z m 4.8903,-7.96672 c 3.3848,-3.36566 4.7067,-4.96986 9.6505,-11.712 7.9541,-10.84741 10.1669,-12.99756 22.784,-22.13839 9.401,-6.81091 13.6008,-10.31765 17.0984,-14.27687 3.9509,-4.47229 6.9368,-9.74528 8.0097,-14.14474 0.653,-2.67743 1.321,-4.03302 2.2265,-4.51822 0.6421,-0.34406 2.2605,-0.40735 5.4334,-0.2124 2.0702,0.1272 3.2457,-0.39161 5.6593,-2.49762 4.628,-4.03829 8.0546,-9.42013 10.3118,-16.19576 1.5042,-4.51535 1.9724,-7.26252 2.1158,-12.416 l 0.1282,-4.608 -1.0435,-4.07255 c -0.574,-2.2399 -1.0436,-4.33743 -1.0436,-4.66122 0,-0.59973 0.7297,-1.42626 3.384,-3.83266 2.5859,-2.34447 4.848,-6.49899 7.109,-13.05612 0.5648,-1.6381 1.027,-3.20233 1.027,-3.47607 0,-1.29201 -5.2533,-2.57006 -16.2408,-3.95118 -9.9716,-1.25338 -14.98,-2.39309 -18.7032,-4.25595 -1.8395,-0.92035 -5.096,-3.20571 -6.2352,-4.37571 l -1.1152,-1.14532 -1.4448,0.66663 c -2.0356,0.93923 -5.5209,1.08421 -8.4229,0.35036 -8.9572,-2.26509 -17.7,-10.85289 -20.5271,-20.16307 l -0.5505,-1.81284 -1.8442,-0.71383 c -6.6184,-2.56174 -13.2992,-8.66908 -17.6129,-16.1011 -0.6597,-1.13653 -1.2995,-1.94562 -1.5426,-1.95069 -0.5761,-0.012 -2.1143,1.724 -4.0726,4.5963 -3.9323,5.76758 -10.1323,10.66934 -15.736,12.44093 l -1.792,0.56656 -0.6965,1.87389 c -1.6391,4.40991 -3.8278,7.88544 -7.1625,11.37362 -4.4932,4.69996 -9.4612,7.62668 -14.7723,8.70254 -3.1148,0.63094 -5.4394,0.43346 -7.3074,-0.62077 l -1.4508,-0.81874 -1.2652,1.13761 c -3.5044,3.15075 -8.2412,5.3332 -14.1933,6.5395 -1.408,0.28536 -5.7856,0.87203 -9.728,1.30373 -8.1292,0.89013 -11.8095,1.48462 -15.107,2.44019 -1.2595,0.365 -2.3218,0.69545 -2.3607,0.73433 -0.1691,0.16909 2.0818,7.26935 3.1365,9.89353 1.9333,4.81065 4.0302,7.98155 6.6331,10.03072 2.1671,1.70604 2.3478,2.48715 1.2929,5.58848 -0.9835,2.89191 -1.4862,7.35785 -1.3236,11.7609 0.3968,10.74591 4.6629,20.36846 12.1685,27.44694 2.8693,2.70597 3.0595,2.76144 8.5308,2.48796 2.0575,-0.10286 2.2652,-0.0671 2.8619,0.4927 0.4268,0.40043 0.9143,1.47745 1.4486,3.2 2.2369,7.21249 3.0078,8.88194 5.8618,12.69532 3.5755,4.77737 8.0776,8.82808 18.5852,16.72184 14.3754,10.79944 15.8751,12.31939 24.5598,24.89124 4.9538,7.17097 9.2828,12.61553 10.0627,12.65562 0.1753,0.009 1.622,-1.27962 3.215,-2.86362 z m -5.0043,-32 c -0.98,-1.0208 -3.0002,-3.45997 -4.4893,-5.42039 -5.4323,-7.15128 -6.9276,-8.53412 -15.0319,-13.90121 -2.6752,-1.77167 -5.5552,-3.74239 -6.4,-4.37942 -5.5845,-4.21094 -8.6041,-8.08363 -9.849,-12.6315 l -0.4301,-1.57102 -2.0285,-0.0692 c -1.1156,-0.0381 -2.5193,-0.24588 -3.1192,-0.46187 -4.395,-1.58208 -8.7089,-7.75455 -10.0933,-14.44165 -0.6205,-2.9973 -0.5366,-7.99248 0.1725,-10.26811 l 0.4314,-1.38435 -0.8033,-0.62868 c -0.4419,-0.34578 -1.3836,-1.39323 -2.0928,-2.32766 -4.5413,-5.98356 -6.3409,-15.44245 -3.9382,-20.69877 0.7789,-1.70373 2.5776,-3.62606 4.7225,-5.04686 3.5023,-2.31995 4.6228,-2.45307 9.748,-1.15815 3.3123,0.83689 3.6475,0.87271 8.064,0.8617 3.7342,-0.009 5.0989,-0.11697 7.1968,-0.56784 5.5591,-1.19475 11.5556,-3.73033 16.4832,-6.9699 3.8166,-2.50916 5.2248,-3.67051 9.4842,-7.82152 2.1892,-2.1334 4.3577,-4.07411 4.8191,-4.3127 l 0.8388,-0.43377 1.3249,1.02784 c 0.7288,0.5653 2.9954,2.49019 5.037,4.2775 7.4085,6.48584 11.9675,9.31088 18.9456,11.73978 4.6379,1.61434 7.2532,2.05202 12.2864,2.05611 4.3375,0.004 4.6006,-0.0269 8.2744,-0.95636 4.7411,-1.19951 5.829,-1.22547 7.4122,-0.17682 1.6099,1.06637 5.0218,4.72161 5.873,6.29192 1.6597,3.06194 1.9906,7.99119 0.8417,12.54008 -0.851,3.36975 -2.9543,7.56849 -5.1825,10.3456 l -1.7419,2.17109 0.3537,1.40605 c 0.2199,0.87388 0.3574,2.85949 0.3634,5.24608 0.01,3.15146 -0.089,4.20721 -0.5428,5.888 -1.1251,4.17129 -3.5397,8.28618 -6.4354,10.96701 -2.2505,2.08361 -3.2634,2.54196 -5.9144,2.67636 l -2.2025,0.11169 -0.4523,1.44246 c -1.8316,5.84133 -5.4442,9.6661 -15.4946,16.40468 -8.3562,5.60266 -10.3992,7.42764 -14.7746,13.1978 -3.0607,4.03628 -8.0867,8.832 -9.2562,8.832 -0.4331,0 -1.1521,-0.55608 -2.4,-1.856 z m 104.6573,-111.67711 c -0.553,-0.19678 -1.3309,-0.59847 -1.7288,-0.89264 -2.6716,-1.97517 -2.6754,-1.97609 -5.8693,-1.40414 -1.2838,0.22989 -2.7854,-0.58496 -4.7325,-2.56809 -1.2056,-1.2279 -1.7497,-2.04843 -2.3949,-3.61147 -2.4602,-5.96014 -3.6208,-6.92131 -7.3983,-6.12669 -3.5102,0.73838 -4.6663,0.5249 -7.6291,-1.40887 -1.0803,-0.7051 -2.7126,-1.46975 -3.9831,-1.86586 -2.4942,-0.77765 -3.8324,-1.60952 -5.3233,-3.30913 -1.1043,-1.2588 -1.5352,-1.49235 -1.5352,-0.832 0,1.50124 -7.8417,-1.21874 -9.737,-3.37738 -0.9269,-1.05559 -0.9595,-1.8932 -0.1304,-3.34334 l 0.6225,-1.08871 -0.9456,0.14021 c -1.2423,0.18424 -2.426,-0.55678 -4.0064,-2.50798 -1.3464,-1.66231 -1.8564,-1.97737 -4.623,-2.85591 -2.1404,-0.67971 -2.9401,-1.23147 -2.9401,-2.02839 0,-0.28501 0.2498,-1.29398 0.5552,-2.24215 0.533,-1.65489 0.5382,-1.76884 0.128,-2.84273 -0.691,-1.80933 -0.5576,-2.68155 0.7519,-4.91855 0.6484,-1.10782 1.4836,-2.27843 1.856,-2.60137 0.3723,-0.32295 2.213,-1.48775 4.0904,-2.58845 5.1303,-3.00774 9.8646,-6.19696 12.629,-8.50741 2.3307,-1.94793 5.1578,-5.10044 5.9531,-6.63839 0.3322,-0.64248 0.5336,-0.71045 2.9675,-1.00152 2.8981,-0.34658 7.7527,-1.84103 10.4929,-3.23019 0.9152,-0.46394 3.7952,-2.11497 6.4,-3.66891 7.2822,-4.34435 7.1008,-4.26929 9.8739,-4.08712 2.9657,0.19482 3.5341,0.42345 4.9901,2.00717 1.1481,1.24884 1.2539,1.3022 2.9244,1.4751 1.7604,0.18219 2.4286,0.60354 2.4407,1.53894 0,0.2195 -0.3586,1.56908 -0.8033,2.99907 l -0.8086,2.60001 0.7758,1.65773 c 1.2753,2.72535 1.293,3.5978 0.1191,5.87827 -0.054,0.1056 0.4333,0.192 1.0835,0.192 2.636,0 3.3475,1.4594 3.1532,6.46764 -0.1422,3.66681 -0.536,5.13776 -1.4535,5.42894 -0.6564,0.20835 -0.6577,0.36382 -0.02,2.39823 0.609,1.94258 0.648,3.90984 0.1182,5.95446 -0.2689,1.03754 -0.3717,2.48484 -0.3301,4.64494 0.07,3.60778 -0.2259,4.48235 -2.1328,6.3147 -1.5183,1.45894 -2.0077,2.30897 -2.0032,3.47909 0,1.38317 0.7971,3.03485 2.2692,4.73331 1.8978,2.18975 2.5082,3.27757 3.2139,5.72734 1.0168,3.52952 0.9048,4.24087 -0.9851,6.2581 l -0.7934,0.84674 0.077,3.17327 c 0.087,3.5925 -0.1355,4.34072 -1.5425,5.18938 -1.1747,0.70851 -2.4519,0.86403 -3.6357,0.44275 z m -204.2423,-6.5163 c -1.7707,-1.12299 -2.013,-1.77935 -1.9279,-5.22375 l 0.072,-2.90095 -0.9714,-1.07832 c -0.5343,-0.5931 -1.0815,-1.36781 -1.216,-1.72162 -0.866,-2.27776 0.6777,-7.05859 3.3382,-10.33795 2.8583,-3.5233 3.0693,-5.93864 0.6781,-7.76253 -0.4987,-0.38034 -1.2363,-1.37263 -1.6791,-2.25879 -0.7481,-1.49689 -0.7898,-1.73968 -0.7898,-4.59136 0,-2.11538 -0.1514,-3.64811 -0.5088,-5.15336 l -0.5089,-2.14247 0.6369,-2.63006 c 0.7658,-3.16296 0.7636,-3.10943 0.1307,-3.10943 -0.7265,0 -1.241,-0.93801 -1.7008,-3.10093 -0.5359,-2.5208 -0.3685,-5.85943 0.3659,-7.29897 0.588,-1.15266 1.6755,-1.77236 2.7498,-1.567 0.5319,0.10168 0.623,0.0465 0.4788,-0.28977 -0.6319,-1.47404 -0.6849,-2.24189 -0.2498,-3.61927 1.1965,-3.78745 1.201,-3.82226 0.77,-5.93961 -0.2211,-1.08654 -0.3665,-2.46528 -0.3229,-3.06384 0.092,-1.2674 0.596,-1.63046 2.6172,-1.88572 1.0716,-0.13534 1.4715,-0.36249 2.699,-1.53339 l 1.4411,-1.37451 2.6802,-0.17326 2.6802,-0.17329 1.8898,0.95166 c 1.0394,0.52344 3.4571,1.88492 5.3727,3.02556 8.1982,4.88153 15.0837,7.45646 19.5236,7.30107 l 2.1353,-0.0747 0.8682,1.792 c 1.7498,3.61126 7.3618,8.29576 14.8758,12.41713 3.8728,2.12416 5.5235,3.25813 6.8711,4.7202 2.0733,2.24919 2.4659,4.0299 1.5688,7.11591 -0.3279,1.12824 -0.3131,1.29459 0.2117,2.37483 0.7623,1.56897 0.7464,2.80888 -0.043,3.3259 -0.3338,0.21878 -1.5722,0.57679 -2.752,0.79562 -2.5882,0.48008 -2.9071,0.66957 -4.465,2.65242 -1.4343,1.82569 -2.5198,2.56599 -3.7625,2.56599 h -0.9022 l 0.4844,0.95012 c 0.6134,1.20317 0.6116,2.03822 -0.01,3.05224 -0.8879,1.45617 -3.3304,2.89146 -6.9133,4.06251 -1.1867,0.38789 -1.5195,0.40643 -2.2905,0.12764 -0.876,-0.31677 -0.9245,-0.30044 -1.6835,0.5673 -1.2578,1.43798 -2.488,2.20969 -5.5827,3.50195 -1.6008,0.66847 -3.451,1.58725 -4.1116,2.04175 -2.764,1.9017 -4.2932,2.17723 -7.4516,1.34272 -3.4438,-0.90997 -5.037,0.11536 -6.3174,4.06577 -0.6587,2.03233 -1.9035,3.99388 -3.7944,5.97901 -1.7595,1.84724 -3.0725,2.56681 -4.3436,2.38041 -3.7092,-0.54387 -3.3909,-0.58746 -4.9435,0.67718 -2.7239,2.21859 -3.9301,2.46758 -5.9005,1.21799 z m 288.4478,-3.11452 c -3.9159,-0.56471 -8.1578,-2.43781 -11.4054,-5.03626 l -2.0718,-1.65758 -1.3041,0.4212 c -6.7722,2.18714 -16.5813,0.13153 -21.1992,-4.44252 -0.9289,-0.92009 -1.9422,-2.20396 -2.2517,-2.85304 -1.2582,-2.63852 -1.8033,-9.15162 -0.8766,-10.47491 0.2438,-0.34813 1.5278,-1.84256 2.8533,-3.32096 2.6752,-2.98368 4.0497,-4.96832 5.6468,-8.15327 5.0681,-10.1066 5.3779,-23.15438 0.9101,-38.33771 -0.4914,-1.66989 -0.8934,-3.28899 -0.8934,-3.59801 0,-0.93539 1.0401,-1.47612 6.0662,-3.15369 15.9064,-5.30903 26.2856,-14.03281 30.8449,-25.92532 l 1.0551,-2.752 h 13.2851 13.2851 l 0.6635,0.704 c 0.838,0.88914 2.2622,3.8603 2.7219,5.67859 l 0.3517,1.39059 2.1512,0.67326 c 7.8969,2.47137 13.769,8.35656 15.8331,15.86841 0.8783,3.19647 0.6704,5.52052 -0.686,7.66554 l -0.7078,1.11949 0.8637,0.92206 c 1.4599,1.55848 3.1178,3.9105 4.0264,5.71226 1.7468,3.46396 2.5267,7.25642 3.4373,16.7138 0.8794,9.13403 1.3534,11.17763 4.1039,17.69341 2.2444,5.31715 3.2411,8.08354 3.7109,10.29999 0.5723,2.70028 0.5583,2.748 -0.9742,3.31543 -1.9891,0.73643 -6.3828,1.72945 -11.584,2.61808 -7.0853,1.2105 -9.3485,2.08097 -19.328,7.43419 -8.918,4.7838 -14.4812,6.15974 -20.0959,4.97045 -0.9856,-0.20875 -1.8071,-0.37955 -1.8256,-0.37955 -0.018,0 -0.1708,0.5472 -0.3383,1.216 -1.0384,4.1462 -8.5861,6.77591 -16.2682,5.66807 z m -381.44003,-1.1434 c -3.93935,-0.86989 -6.87822,-2.87885 -7.56506,-5.17133 l -0.3046,-1.01662 -1.44117,0.39541 c -0.90757,0.24904 -2.57858,0.40075 -4.51317,0.40978 -5.2039,0.0243 -8.37081,-0.94256 -17.536,-5.3536 -9.6842,-4.66081 -10.86145,-5.04775 -19.46086,-6.39654 -5.64009,-0.88463 -9.90935,-1.86176 -11.31877,-2.59062 -0.55192,-0.28539 -0.70823,-0.54861 -0.70772,-1.19173 10e-4,-1.45564 1.18475,-5.30867 3.29517,-10.72681 3.12208,-8.01538 3.36873,-9.21218 4.00018,-19.41061 0.44486,-7.18482 0.66273,-9.06903 1.41656,-12.25121 0.91797,-3.87505 2.99527,-7.86274 5.20558,-9.99291 l 0.9008,-0.86815 -0.61259,-0.80315 c -1.81611,-2.38103 -2.11202,-4.93959 -1.01078,-8.73974 2.27456,-7.84901 7.79181,-13.3924 15.70087,-15.77528 l 1.12044,-0.33756 0.94639,-2.688 c 1.06986,-3.03869 1.63039,-4.22382 2.3913,-5.056 l 0.52668,-0.576 h 13.10618 13.10618 l 0.6959,1.984 c 2.60029,7.41332 8.31433,14.08305 16.33809,19.07069 4.79837,2.98271 12.2492,6.07447 18.35165,7.61511 1.73748,0.43863 3.48698,0.96714 3.88788,1.17442 0.6837,0.35357 0.7289,0.4765 0.7289,1.98367 0,0.92506 -0.3233,2.9077 -0.762,4.67308 -1.7808,7.16579 -2.3317,17.15835 -1.2839,23.28757 1.2622,7.38294 4.461,13.78627 9.7129,19.44346 3.6314,3.9115 3.853,4.26473 3.853,6.14147 0,2.09195 -0.8017,5.17995 -1.9612,7.55453 -1.8821,3.85439 -5.7747,6.60431 -11.4788,8.10921 -2.20786,0.58248 -3.10589,0.67866 -6.52803,0.69908 -3.21127,0.0192 -4.2766,-0.0691 -5.58617,-0.46313 l -1.61817,-0.48683 -1.13601,1.29864 c -2.14743,2.45483 -5.40428,4.37202 -9.47185,5.57573 -2.93732,0.86922 -8.18662,1.09854 -10.9878,0.47997 z m 222.93153,-60.89034 c -0.7284,-0.33915 -1.5116,-0.90237 -1.7405,-1.25161 -0.2288,-0.34921 -0.7547,-0.77524 -1.1688,-0.94674 -1.7144,-0.71014 -3.5729,-3.75112 -4.6158,-7.55269 -0.8631,-3.14604 -0.9899,-4.41718 -0.7084,-7.10331 l 0.262,-2.50004 -1.4511,-1.89451 c -1.727,-2.25484 -2.7787,-4.79902 -3.3574,-8.1227 -0.7669,-4.40345 -0.057,-7.7857 2.0027,-9.54921 l 1.0097,-0.8642 -0.2969,-1.87666 c -0.1633,-1.03217 -0.2595,-2.68306 -0.2139,-3.66866 l 0.083,-1.792 26.7594,-0.0652 26.7595,-0.0652 0.283,0.74993 c 0.1907,0.50517 0.6896,0.95747 1.5286,1.38591 2.3178,1.18354 5.8598,4.66475 7.7991,7.66515 1.3802,2.13545 1.8638,3.74874 1.6611,5.54089 -0.1173,1.03657 -0.054,1.72513 0.2181,2.3766 0.3771,0.90271 0.3676,0.94131 -0.6016,2.44088 -1.481,2.29146 -1.6916,2.40963 -9.0373,5.07208 -7.1545,2.59318 -12.2903,5.65622 -15.5711,9.28673 l -1.6548,1.83122 -1.664,0.004 c -2.1764,0.006 -5.2754,0.76413 -8.104,1.98361 -2.0925,0.90209 -3.5096,1.80805 -11.9354,7.63031 -3.1721,2.19187 -3.9526,2.35249 -6.2451,1.2851 z m -57.5128,-3.75647 c -1.3527,-0.31803 -3.0265,-1.50349 -7.2107,-5.10697 -3.9848,-3.43173 -7.1475,-5.66438 -10.1932,-7.19572 -2.1533,-1.08265 -5.2854,-2.00656 -6.8078,-2.00812 -0.8746,0 -0.9619,-0.0838 -1.8047,-1.71369 -2.1505,-4.15861 -7.6678,-8.28546 -15.4983,-11.59262 -4.8354,-2.04217 -5.4837,-2.47588 -6.3089,-4.22016 -0.8657,-1.82984 -0.9166,-2.741 -0.209,-3.73486 0.4266,-0.5991 0.4919,-0.96154 0.3568,-1.98032 -0.1879,-1.41634 0.2845,-2.59609 1.8922,-4.7254 l 0.9181,-1.216 h 31.5368 31.5368 l -0.6203,2.8681 -0.6203,2.86809 0.8069,0.63155 c 1.2483,0.97695 1.7547,2.36934 1.7612,4.84306 0.012,4.53579 -1.1735,7.72388 -4.3198,11.61652 -2.2647,2.80199 -2.2855,2.84715 -2.144,4.66672 0.2194,2.82204 -1.6549,8.55248 -3.902,11.92996 -1.1354,1.70655 -2.2027,2.56 -3.2015,2.56 -0.3198,0 -0.9229,0.38966 -1.3867,0.896 -0.7535,0.82266 -0.9344,0.8939 -2.2105,0.87027 -0.7644,-0.0141 -1.8314,-0.12951 -2.3711,-0.25641 z M 112.37501,420.99228 v -6.27742 l 12.224,-0.0734 c 11.74753,-0.0705 12.26391,-0.0939 13.248,-0.59883 0.73667,-0.37796 1.20358,-0.8808 1.664,-1.792 l 0.64,-1.26659 0.0702,-29.376 0.0703,-29.376 h 6.27466 6.27466 l -0.079,30.4 c -0.0732,28.15926 -0.11229,30.5132 -0.53078,31.936 -1.77588,6.03779 -5.53979,9.83562 -11.82404,11.93065 -1.76846,0.58954 -1.96435,0.59853 -14.912,0.68419 l -13.12,0.0868 z m 225.34113,-15.85397 c -1.9542,-0.70871 -2.2007,-1.09128 -13.897,-21.56719 l -11.3801,-19.9222 -0.065,20.40356 -0.065,20.40356 h -6.2733 -6.2734 l 0.067,-32.98012 0.067,-32.98015 0.7748,-1.25309 c 1.476,-2.38725 4.3734,-3.45518 7.2154,-2.65948 2.3645,0.66204 2.468,0.82209 17.7378,27.43744 7.8144,13.6205 14.2672,24.7661 14.3394,24.768 0.072,0.003 6.6315,-11.29567 14.576,-25.10567 15.2266,-26.46873 15.1937,-26.41748 17.3844,-27.07382 3.3408,-1.00093 6.413,0.33163 7.8731,3.41489 l 0.6061,1.28 v 32.576 32.576 h -6.3984 -6.3985 l -0.065,-20.34726 -0.065,-20.34724 -10.9539,19.27844 c -6.0247,10.60313 -11.2332,19.68934 -11.5744,20.19159 -0.9102,1.33936 -2.8992,2.25351 -4.8499,2.22899 -0.8524,-0.0107 -1.9255,-0.15573 -2.3846,-0.32225 z M 18.132236,403.74093 c -1.68875,-0.87944 -2.92403,-2.73513 -3.16363,-4.75251 -0.086,-0.72402 -0.12152,-14.33398 -0.079,-30.24438 l 0.0774,-28.928 0.55546,-1.03754 c 0.30551,-0.57065 0.9302,-1.40393 1.38822,-1.85173 1.71932,-1.68094 0.78777,-1.61961 23.27232,-1.53203 l 20.352,0.0793 2.46637,0.67674 c 8.30016,2.27742 14.45226,7.20048 18.01652,14.41725 1.60452,3.24877 2.51242,6.20058 2.91332,9.472 0.42295,3.45134 0.36414,17.36696 -0.086,20.35308 -1.85458,12.30236 -10.66017,21.40679 -22.89048,23.66732 -1.81121,0.33477 -5.1622,0.3956 -21.79477,0.3956 h -19.65448 z m 42.85805,-12.66153 c 4.05044,-1.43329 7.06848,-4.00899 8.77324,-7.48736 1.68853,-3.44527 1.77948,-4.14525 1.77948,-13.696 0,-7.38565 -0.0625,-8.80696 -0.45061,-10.24 -1.24195,-4.58624 -3.96285,-8.01882 -7.89131,-9.95535 -3.63849,-1.79362 -3.8396,-1.8112 -20.77808,-1.8162 l -15.04,-0.004 v 22.02524 22.02527 l 15.808,-0.0733 15.808,-0.0732 z m 46.687344,12.84585 c -1.10516,-0.27154 -2.89892,-0.95649 -3.98613,-1.52213 -4.996144,-2.59927 -8.048904,-7.13164 -8.714004,-12.93752 -0.1539,-1.34338 -0.26316,-9.50996 -0.26439,-19.76156 l -0.002,-17.472 h 6.400004 6.4 l 0.004,18.24 0.004,18.24 0.57285,1.024 c 0.37744,0.67471 0.9621,1.22048 1.71403,1.6 1.13549,0.57313 1.20162,0.576 13.24694,0.576 h 12.10608 v 6.272 6.272 l -12.736,-0.0184 c -11.67562,-0.0169 -12.9033,-0.0596 -14.74538,-0.51226 z m 56.92138,-22.49661 c 0,-15.67957 0.0892,-23.44336 0.27957,-24.33101 0.36206,-1.68822 1.56302,-3.22673 3.17643,-4.0692 l 1.28,-0.66839 15.104,-0.0777 c 16.29428,-0.0838 18.72864,0.0418 22.2602,1.14862 8.90183,2.79002 14.74493,9.77815 15.73873,18.82301 0.1618,1.47272 0.2731,8.5416 0.2731,17.344 v 14.85807 h -6.2576 -6.25749 l -0.0928,-15.552 c -0.0854,-14.31127 -0.13034,-15.65624 -0.56339,-16.85868 -1.12802,-3.13208 -3.44535,-5.4574 -6.5134,-6.53591 -1.66137,-0.58401 -1.90347,-0.59604 -13.65935,-0.67998 l -11.968,-0.0854 v 19.856 19.856 h -6.4 -6.4 z m 78.39783,22.51727 c -4.5662,-1.20865 -7.8116,-3.54696 -10.2808,-7.40741 -1.577,-2.46546 -2.1174,-4.42967 -2.2586,-8.21046 -0.099,-2.64701 -0.027,-3.58636 0.4132,-5.43583 1.2404,-5.20517 4.3532,-9.1362 9.068,-11.45157 2.9047,-1.42643 4.2814,-1.5446 17.9949,-1.5446 h 12.3935 v 6.016 6.016 l -11.84,0.003 c -7.4108,0 -12.1988,0.10107 -12.7992,0.26778 -1.3709,0.38074 -2.6818,1.83956 -3.1738,3.53221 -0.7779,2.67571 0.3717,5.28929 2.7922,6.34808 0.9958,0.43561 2.0579,0.48072 12.9544,0.5505 13.8123,0.0884 14.211,0.0476 15.8197,-1.62084 1.6063,-1.66586 1.6771,-2.26831 1.579,-13.43116 -0.092,-10.49501 -0.066,-10.3113 -1.6615,-11.82644 -1.5885,-1.50894 -1.3216,-1.48556 -16.9746,-1.48556 h -14.3442 v -6.03067 -6.0307 l 15.296,0.0917 c 15.0305,0.0901 15.3292,0.10173 17.2118,0.67215 2.8527,0.86436 5.2863,2.25418 7.3002,4.16911 1.9748,1.87779 3.1729,3.67778 4.1925,6.29858 l 0.6715,1.72585 v 12.928 12.928 l -0.7013,2.06807 c -0.7818,2.30566 -2.2627,4.78546 -3.8675,6.47603 -1.479,1.55819 -4.5183,3.50641 -6.5357,4.18946 -1.671,0.56582 -1.9103,0.57495 -16.5435,0.63115 -13.9348,0.0535 -14.9623,0.0267 -16.7062,-0.43484 z m 159.7392,0.0197 c -3.1619,-0.78515 -5.5428,-2.14121 -7.8711,-4.4831 -3.4934,-3.51378 -4.7918,-6.78128 -4.7883,-12.05048 0.01,-7.29902 3.5233,-13.12942 9.6797,-16.04006 2.9202,-1.38059 4.3021,-1.49594 17.9212,-1.49594 h 12.3935 v 6.00668 6.00666 l -12.352,0.0733 -12.352,0.0733 -0.9623,0.59827 c -2.6176,1.62745 -3.2321,5.76781 -1.1997,8.08259 1.5895,1.81038 1.558,1.80636 14.8128,1.89117 7.8202,0.05 12.323,-0.0184 13.1704,-0.20011 1.6693,-0.35799 2.9043,-1.31986 3.5852,-2.79214 0.5265,-1.13854 0.5456,-1.51993 0.5456,-10.90778 0,-5.3504 -0.092,-10.16246 -0.2046,-10.69348 -0.2588,-1.22099 -1.5365,-2.68946 -2.8652,-3.29308 -0.9532,-0.433 -2.0513,-0.46659 -15.4262,-0.47181 l -14.4,-0.006 v -6.03067 -6.03069 l 15.296,0.0917 c 15.0305,0.0901 15.3292,0.10173 17.2118,0.67215 5.5256,1.67422 9.7033,5.56931 11.5682,10.78554 0.5854,1.63727 0.5962,1.8559 0.6733,13.614 0.074,11.3333 0.051,12.06475 -0.4495,14.17288 -1.3545,5.70296 -5.2556,10.16645 -10.5907,12.11735 l -1.8371,0.67177 -14.848,0.0501 c -13.5646,0.0457 -15.009,0.01 -16.711,-0.41252 z m 55.2415,-23.12558 v -23.616 l 0.6045,-1.29815 c 0.3324,-0.71396 1.0513,-1.66833 1.5975,-2.12078 1.9513,-1.61656 1.9248,-1.61454 19.864,-1.50771 15.6609,0.0933 16.2718,0.11507 18.3242,0.65436 4.3461,1.14199 8.1126,3.20105 11.0196,6.02424 2.7431,2.66401 4.4708,5.58869 5.7211,9.68448 0.5639,1.8473 0.5738,2.13105 0.6582,18.83556 l 0.086,16.96 h -6.2764 -6.2764 l -0.072,-15.808 -0.072,-15.808 -0.5977,-1.48086 c -0.8183,-2.02724 -2.9705,-4.30868 -4.9937,-5.29354 -2.4299,-1.18282 -4.0748,-1.30913 -16.0406,-1.23187 l -10.88,0.0703 -0.066,19.776 -0.066,19.776 h -6.2705 -6.2704 v -23.616 z m 81.1495,23.20975 c -6.4856,-1.71609 -11.013,-6.67363 -12.4155,-13.59498 -0.3594,-1.77395 -0.4052,-3.65373 -0.324,-13.29641 0.105,-12.46751 0.076,-12.22758 1.9361,-15.83836 1.2624,-2.44997 4.3995,-5.57832 6.8864,-6.86717 1.0138,-0.52534 2.7418,-1.20589 3.84,-1.51232 1.9045,-0.53133 2.5868,-0.56136 14.733,-0.64802 l 12.736,-0.0909 v 6.27339 6.27338 l -12.096,0.0778 -12.096,0.0778 -1.1306,0.64 c -0.7208,0.40804 -1.3239,1.01115 -1.664,1.664 -0.5087,0.97649 -0.5369,1.47213 -0.6089,10.68193 -0.081,10.34389 -0.01,11.12226 1.1583,12.50924 1.2851,1.52735 1.139,1.51283 15.2387,1.51283 12.85,0 12.8848,-0.003 14.0242,-0.576 0.8345,-0.42079 1.2975,-0.88379 1.7183,-1.71825 l 0.576,-1.14224 v -29.12974 -29.12975 h 6.277 6.2771 l -0.069,30.4 -0.069,30.4 -0.757,2.16986 c -1.9122,5.48078 -6.1228,9.24403 -12.0348,10.75604 -1.8999,0.48591 -2.7974,0.51318 -16.3691,0.49726 -11.7113,-0.0138 -14.6187,-0.0856 -15.7671,-0.38941 z m 66.4014,-0.0998 c -4.0557,-1.06334 -7.6047,-3.51882 -9.7742,-6.76252 -2.222,-3.32208 -3.0714,-6.67038 -2.7878,-10.98836 0.4923,-7.49389 4.9999,-13.41156 11.9526,-15.69144 1.2673,-0.4156 2.7317,-0.47069 14.656,-0.55138 l 13.248,-0.0897 v 6.0307 6.03069 l -11.968,0.006 c -11.0881,0.005 -12.0433,0.0404 -12.992,0.47821 -1.9168,0.88463 -2.944,2.60526 -2.944,4.93112 0,2.56264 1.5526,4.48131 4.096,5.06166 1.6116,0.36774 23.3769,0.36242 25.0956,-0.006 1.5672,-0.33611 2.9439,-1.44791 3.6109,-2.91625 0.4258,-0.93714 0.4662,-1.90375 0.4662,-11.1382 0,-11.30722 -0.032,-11.53191 -1.8169,-12.85837 -1.6288,-1.21029 -1.7856,-1.22163 -16.898,-1.22163 h -14.2978 v -6.02901 -6.029 l 15.296,0.0895 c 13.8811,0.0812 15.4499,0.13284 16.96,0.55824 5.106,1.43838 8.8912,4.43671 11.0259,8.73387 1.5702,3.16086 1.5911,3.34728 1.7074,15.22041 0.073,7.42658 0.013,11.52233 -0.1891,12.90365 -0.8806,6.02465 -4.1069,10.62915 -9.2759,13.23848 -2.9023,1.46508 -3.339,1.49926 -19.0123,1.488 -13.1529,-0.009 -14.4865,-0.0498 -16.1586,-0.48817 z m 67.9422,-0.0169 c -4.9592,-1.2193 -8.8942,-4.37443 -11.2376,-9.01038 -1.55,-3.06642 -1.4981,-1.86755 -1.5022,-34.69064 v -30.01602 h 6.272 6.272 v 29.06619 c 0,28.01669 0.017,29.10049 0.4847,30.016 1.0957,2.14681 2.2883,2.61381 6.6751,2.61381 h 3.3362 v 6.272 6.272 l -4.16,-0.0184 c -3.1712,-0.0141 -4.6298,-0.13404 -6.1364,-0.50445 z m 27.7631,0.0131 c -6.2209,-1.64945 -10.9772,-6.4832 -12.2189,-12.41797 -0.8528,-4.07605 -0.2488,-8.87843 1.5938,-12.672 1.2176,-2.50683 4.5271,-5.87694 6.9843,-7.11214 3.3836,-1.70091 3.1395,-1.67639 17.7261,-1.78165 l 13.248,-0.0956 v 6.0307 6.03069 h -11.9122 c -10.1728,0 -12.0507,0.0579 -12.8606,0.39621 -2.0279,0.84736 -3.154,2.61392 -3.1652,4.96582 -0.013,2.67763 1.4654,4.50841 4.13,5.11513 1.6401,0.37348 23.3791,0.36094 25.1394,-0.0146 1.6704,-0.35628 3.3245,-1.86335 3.7577,-3.42349 0.414,-1.49151 0.3908,-19.81706 -0.027,-21.21131 -0.4017,-1.3408 -1.8372,-2.77627 -3.178,-3.17799 -0.7727,-0.2315 -4.785,-0.31385 -15.2899,-0.31385 h -14.2422 v -6.016 -6.016 l 14.4,0.009 c 15.4735,0.009 16.6136,0.0867 19.9356,1.34794 4.0582,1.54081 6.9183,4.13322 8.9075,8.07373 1.6546,3.27772 1.6849,3.57092 1.6849,16.29739 0,10.25674 -0.051,11.7386 -0.4676,13.51345 -1.326,5.65335 -5.3406,10.2017 -10.8385,12.27968 -1.4708,0.5559 -1.7254,0.56558 -16.4699,0.62548 -14.0858,0.0573 -15.0867,0.0315 -16.8373,-0.43264 z M 116.12332,314.66404 c -0.50806,-3.07377 0.0186,-6.25306 1.4747,-8.90209 l 0.95305,-1.73387 -1.01871,-1.05 c -2.03376,-2.09629 -4.69566,-5.98892 -6.41073,-9.37475 -3.1637,-6.24568 -4.49905,-11.4473 -5.78215,-22.52329 -2.51558,-21.71499 -3.06098,-24.2279 -7.362034,-33.92 -5.56939,-12.55023 -6.24721,-14.27724 -7.28442,-18.56 -1.12917,-4.66252 -0.81617,-6.86793 1.13659,-8.0084 1.73708,-1.01451 10.147164,-2.43557 18.497394,-3.12551 14.48631,-1.19695 17.31964,-1.97098 34.96476,-9.55187 11.46528,-4.92584 16.41016,-6.52835 22.76324,-7.37697 3.79651,-0.50712 8.74438,-0.33986 11.904,0.40241 1.1968,0.28116 2.64737,0.51415 3.22348,0.51777 0.99787,0.006 1.06166,-0.0408 1.34697,-0.99305 0.38734,-1.29281 2.32917,-3.44419 4.20262,-4.65612 1.83972,-1.19011 5.01948,-2.35444 8.44289,-3.09153 2.2038,-0.47449 3.46452,-0.56752 7.87204,-0.58085 3.29728,-0.01 5.96168,0.11041 7.168,0.32388 9.10173,1.61061 16.69403,5.13277 23.55203,10.92598 l 2.176,1.83816 4.224,-0.56825 4.224,-0.56824 7.936,1.221 c 4.3648,0.67156 8.0224,1.16889 8.128,1.10519 0.1056,-0.0637 0.192,-0.66993 0.192,-1.34718 0,-2.51514 1.9116,-11.59018 2.8495,-13.52767 0.7088,-1.46413 1.8187,-2.17867 3.0905,-1.98952 0.5214,0.0776 3.1263,1.0045 5.7887,2.05988 2.6623,1.05539 5.0142,1.91889 5.2264,1.91889 0.268,0 0.7096,-0.99609 1.447,-3.264 1.7856,-5.49157 4.1675,-9.73432 7.3724,-13.13163 l 1.6657,-1.76569 -0.6878,-2.87634 c -0.5237,-2.19024 -0.7205,-3.79491 -0.825,-6.72734 -0.4724,-13.25946 4.1861,-25.53136 12.8915,-33.96011 3.8427,-3.72062 6.4461,-4.9785 10.2198,-4.93801 l 2.3188,0.0249 0.4397,-1.6763 c 0.9927,-3.7851 3.6754,-9.04133 6.5983,-12.92837 3.7324,-4.963439 8.1045,-8.824329 19.0137,-16.790649 3.503,-2.55807 7.535,-5.58549 8.96,-6.72761 4.0193,-3.22158 7.9196,-7.30453 10.9215,-11.4329 6.7159,-9.236313 8.8944,-11.998986 11.9661,-15.174789 1.7903,-1.851074 3.9236,-3.92394 4.7405,-4.606369 1.3654,-1.140677 1.5947,-1.240778 2.8416,-1.240778 1.0906,0 1.5572,0.145548 2.3823,0.743237 2.2674,1.642511 6.7141,7.165002 12.8,15.896763 7.1552,10.266016 9.3394,12.417346 22.8059,22.462976 8.4577,6.3092 12.1141,9.34801 15.6736,13.02638 5.1332,5.304609 8.3368,10.465889 10.0908,16.257129 l 0.6695,2.21048 2.5247,0.10141 c 2.348,0.0943 2.6746,0.17582 4.6655,1.16449 2.7418,1.36153 5.2594,3.49389 7.6867,6.51035 2.4434,3.03646 3.1805,4.13672 4.7813,7.13668 4.9481,9.27268 6.8146,19.9338 5.0635,28.9221 -0.3703,1.9008 -0.7301,3.78638 -0.7996,4.19018 -0.1061,0.61636 0.096,0.97413 1.258,2.22946 3.8336,4.14074 7.5471,11.70079 8.9821,18.28583 0.2453,1.12559 0.5308,2.13934 0.6344,2.25278 0.1037,0.11344 2.3651,-0.5946 5.0254,-1.57342 6.3748,-2.3455 8.0912,-2.86106 10.085,-3.02934 1.4237,-0.12016 1.7596,-0.0644 2.3265,0.38601 1.1383,0.90443 1.978,4.68179 2.6702,12.0105 0.096,1.0208 0.2499,1.85547 0.3413,1.85482 0.091,-7.7e-4 1.7212,-0.23599 3.622,-0.52297 6.453,-0.9743 12.751,-0.94068 16.768,0.0895 l 1.28,0.32827 1.536,-1.40208 c 8.1376,-7.42807 18.9725,-11.56986 30.336,-11.5963 11.1055,-0.0258 19.0325,3.04482 21.4486,8.30845 0.4645,1.01201 0.793,1.4365 1.0387,1.34222 1.0499,-0.40288 5.4826,-0.94473 8.7447,-1.06894 6.0217,-0.22928 11.7564,0.7466 18.2768,3.11015 1.7676,0.64071 6.861,2.78506 11.3189,4.76522 16.3722,7.27253 19.479,8.21408 31.5883,9.57318 10.5363,1.18255 14.9075,1.96425 19.3148,3.454 2.8287,0.95616 3.8176,1.57472 4.3663,2.73103 0.5653,1.19124 0.4046,2.45147 -0.7997,6.2726 -1.2175,3.86284 -2.1307,6.03677 -5.7899,13.78379 -3.8154,8.07762 -4.8149,10.58338 -5.9449,14.90395 -1.149,4.39319 -1.7467,7.84679 -2.693,15.56109 -1.6761,13.66265 -2.463,18.10076 -4.1042,23.14509 -1.8702,5.74876 -4.1713,9.79343 -8.2894,14.57083 -1.0714,1.24296 -1.948,2.31982 -1.948,2.39301 0,0.0732 0.4798,1.10157 1.0664,2.28521 0.9136,1.84369 1.0834,2.44539 1.1849,4.19896 l 0.1185,2.0469 h -2.5289 -2.5289 v -1.37113 c 0,-1.25819 -0.131,-1.56457 -1.5901,-3.7202 -0.8746,-1.292 -1.6651,-2.74915 -1.7569,-3.23811 -0.1954,-1.04162 0.011,-1.35693 3.6004,-5.49305 3.5697,-4.11358 4.4385,-5.29853 5.6413,-7.69346 2.9396,-5.85306 4.3539,-11.90418 6.1297,-26.22654 2.2334,-18.0127 2.896,-20.45941 8.9785,-33.15289 1.5861,-3.30994 3.3162,-7.05421 3.8446,-8.32059 1.2838,-3.07646 2.6829,-7.38304 2.4643,-7.58497 -0.3395,-0.31369 -10.9569,-2.76051 -13.6158,-3.13785 -1.4784,-0.2098 -4.5888,-0.56887 -6.912,-0.79793 -11.6795,-1.15154 -14.8542,-2.08054 -29.3991,-8.603 -15.145,-6.7915 -21.1211,-8.54757 -28.9689,-8.51249 -3.218,0.0144 -4.1763,0.12393 -7.2009,0.82316 -5.7215,1.32272 -6.2022,1.17743 -7.5201,-2.27306 -0.9462,-2.47738 -1.6519,-3.41272 -3.2791,-4.34607 -3.3756,-1.93621 -7.3378,-2.67103 -14.3839,-2.66767 -4.9899,0.002 -5.5966,0.0543 -8.448,0.72261 -7.2743,1.705 -11.7076,4.12611 -18.432,10.06606 -1.2672,1.11936 -2.5556,2.16964 -2.8632,2.33395 -0.8809,0.4706 -1.7686,0.35985 -4.2744,-0.53326 -2.3159,-0.8254 -2.371,-0.83185 -6.9424,-0.81291 -3.8032,0.0157 -5.2499,0.136 -8.2831,0.6884 -2.0213,0.36813 -3.7279,0.7221 -3.7924,0.78661 -0.064,0.0645 0.074,1.25233 0.3079,2.6396 0.5672,3.36536 2.3709,8.74712 5.1909,15.48827 3.8342,9.16548 4.9892,13.19484 5.3151,18.54168 0.1229,2.01557 0.045,3.09564 -0.379,5.22835 -0.2936,1.4784 -0.5342,2.76056 -0.5347,2.84924 0,0.0887 0.6355,0.64159 1.4131,1.22868 2.5085,1.89395 3.8779,4.59895 4.6099,9.10608 1.4588,8.98222 -1.2758,18.4264 -7.4951,25.88493 l -1.3049,1.56495 0.2454,2.78705 c 0.325,3.69162 -0.079,8.43338 -1.0512,12.33239 -0.6042,2.4236 -1.1646,3.82067 -2.9223,7.28492 -2.0606,4.06103 -2.1453,4.29207 -1.6113,4.39733 0.31,0.0611 1.6005,0.24157 2.8677,0.401 4.6404,0.58378 12.9565,2.73237 12.0107,3.10311 -0.9713,0.38069 -12.8966,0.25467 -15.0592,-0.15916 -1.1929,-0.22827 -2.5218,-0.32146 -3.2349,-0.22684 -1.0339,0.13714 -1.2932,0.0778 -1.7782,-0.40722 -0.8362,-0.83622 -0.5786,-1.57455 1.9078,-5.46934 3.0499,-4.77714 4.1412,-7.49197 5.1604,-12.83712 0.594,-3.11559 0.6004,-8.53368 0.012,-10.08018 -0.7908,-2.07746 -0.6723,-2.38684 1.9573,-5.11278 1.3111,-1.35908 2.7527,-3.12141 3.2035,-3.91631 4.6504,-8.19881 5.5168,-20.18033 1.7681,-24.44988 -0.4313,-0.49125 -1.5715,-1.28966 -2.5338,-1.77424 l -1.7495,-0.88104 v -1.42613 c 0,-0.78437 0.2458,-2.36693 0.5463,-3.51678 0.3889,-1.48824 0.5471,-2.86521 0.549,-4.77866 0.01,-5.05549 -1.1929,-9.32526 -5.3863,-19.2 -4.2289,-9.95816 -4.9178,-12.39967 -5.5625,-19.712 -0.6013,-6.81915 -1.1151,-11.11762 -1.566,-13.1001 l -0.4083,-1.79516 -0.9341,0.17026 c -2.0725,0.37776 -9.7781,3.09558 -13.4437,4.74171 -6.7024,3.00976 -8.5622,3.44832 -19.584,4.618 -4.0317,0.42786 -8.7615,1.06598 -10.5105,1.41803 -6.0773,1.22323 -11.1374,3.62809 -14.3654,6.82726 -1.6447,1.63003 -1.8103,1.728 -2.9208,1.728 -1.0265,0 -1.3261,-0.13733 -2.3412,-1.07294 -1.0369,-0.9558 -1.3277,-1.0848 -2.6639,-1.18144 -1.7323,-0.12531 -5.2169,0.76099 -7.9041,2.01042 -6.8138,3.16805 -12.6561,10.02677 -14.7578,17.32515 -0.3558,1.23575 -0.8326,2.38609 -1.0594,2.55631 -0.2269,0.17022 -0.9441,0.38115 -1.5939,0.46873 -4.3579,0.58734 -8.9698,3.71933 -13.5557,9.20577 -2.4039,2.87601 -4.7067,6.34671 -5.8166,8.76655 -0.9737,2.12277 -1.6651,2.641 -2.8536,2.1387 -0.5705,-0.24112 -1.0647,-1.01377 -2.4385,-3.81183 -4.2951,-8.7484 -10.5303,-14.73092 -17.9465,-17.21922 l -2.0279,-0.68043 -0.9625,-2.93262 c -1.1279,-3.43627 -1.8583,-4.96243 -3.7328,-7.79907 -2.6899,-4.07056 -6.4613,-7.33285 -10.8933,-9.42286 -2.9134,-1.37539 -5.0034,-1.93673 -7.2052,-1.93673 -1.5452,0 -1.7638,0.0739 -3.0282,1.024 -2.1077,1.58367 -2.6517,1.47836 -5.4726,-1.05933 -2.6687,-2.40082 -3.7418,-3.1733 -5.959,-4.28987 -3.9164,-1.97217 -8.769,-3.10597 -18.745,-4.37963 -11.2299,-1.43375 -13.0572,-1.94558 -21.5242,-6.02867 -5.8715,-2.83149 -10.4441,-4.63167 -11.113,-4.37501 -0.3439,0.13196 -1.9782,6.48384 -2.4136,9.38051 -0.1376,0.9152 -0.4358,3.3344 -0.6627,5.376 -0.8389,7.54823 -1.5565,9.95261 -5.6923,19.072 -1.3409,2.9568 -2.8973,6.528 -3.4586,7.936 -2.4913,6.24913 -3.3118,12.24897 -2.2695,16.59621 0.6394,2.66678 0.6875,4.20193 0.1557,4.96126 -0.2124,0.30327 -1.0476,0.79804 -1.856,1.09949 -1.8515,0.69042 -2.4076,1.21348 -3.2239,3.03245 -1.0486,2.33668 -1.4798,4.31781 -1.6241,7.46259 -0.3378,7.3623 2.6437,15.30639 7.7937,20.76564 l 1.616,1.71303 -0.5445,1.88065 c -0.8395,2.90007 -0.9554,7.78542 -0.2642,11.13452 1.0105,4.89566 3.6072,11.29643 6.0011,14.79268 1.5191,2.21857 1.578,3.2473 0.2268,3.95898 -0.4509,0.2375 -0.9301,0.23757 -2.1356,0 -2.2993,-0.45235 -8.3627,-0.13642 -12.0031,0.62541 -1.6192,0.33884 -3.9744,1.03383 -5.2338,1.5444 -2.2317,0.90481 -2.3744,0.92813 -5.632,0.92142 l -3.3422,-0.007 0.896,-0.75891 c 1.0905,-0.9236 5.4345,-3.10836 7.5915,-3.81794 4.8899,-1.60868 6.4509,-1.88897 11.1605,-2.00407 2.4992,-0.0611 4.544,-0.1535 4.544,-0.20539 0,-0.0519 -0.8587,-1.8551 -1.9081,-4.00714 -2.8611,-5.86698 -3.9835,-10.46838 -3.9755,-16.29832 0,-1.84345 0.1656,-3.99083 0.3797,-5.00144 l 0.3751,-1.77098 -0.9556,-1.12871 c -2.803,-3.31077 -5.2581,-7.61669 -6.4395,-11.29431 -2.2135,-6.88975 -1.9054,-15.51478 0.7412,-20.75783 0.8378,-1.6596 2.7222,-3.47821 3.8639,-3.72898 0.413,-0.0907 0.7508,-0.23064 0.7508,-0.31101 0,-0.0804 -0.1876,-1.07181 -0.4168,-2.20322 -0.3237,-1.59719 -0.3854,-2.91931 -0.2762,-5.91354 0.2197,-6.02181 0.9913,-8.52507 6.4038,-20.77482 2.8085,-6.35628 5.1487,-13.43543 4.6079,-13.93907 -0.1137,-0.10591 -1.5315,-0.49513 -3.1507,-0.86493 -9.1524,-2.09027 -14.677,-2.17923 -19.8022,-0.31889 l -1.6708,0.60646 -3.4075,-2.92756 c -4.85,-4.16649 -6.3979,-5.28423 -9.2955,-6.71211 -6.6385,-3.27128 -16.40976,-5.12822 -23.22828,-4.41433 -4.83365,0.50607 -8.81939,1.95942 -10.4421,3.80759 -0.45,0.51252 -1.33585,2.01012 -1.96855,3.328 -0.63271,1.31788 -1.38548,2.52197 -1.67284,2.67575 -0.69342,0.37111 -2.63255,0.13434 -6.59224,-0.80493 -2.68784,-0.63758 -3.73265,-0.75932 -6.528,-0.76062 -7.33037,-0.003 -13.95799,1.74177 -25.41978,6.69353 -19.65203,8.49015 -20.86266,8.82319 -37.55622,10.33144 -7.26038,0.65597 -10.54446,1.08492 -13.865934,1.81109 l -1.83393,0.40094 0.50322,1.83522 c 2.05576,7.49717 3.41032,11.23306 6.563664,18.10266 4.94574,10.77435 5.58138,13.30205 7.33908,29.18453 1.05464,9.5296 1.47035,12.42532 2.3448,16.33318 1.85785,8.30262 5.991,16.43766 10.25222,20.1788 0.89157,0.78277 1.83678,1.89611 2.13799,2.51832 0.73377,1.5158 0.41405,2.5848 -1.41439,4.72906 -0.82211,0.9641 -1.53062,2.08891 -1.69103,2.68465 -0.25274,0.9386 -0.16562,2.91533 0.21189,4.80801 l 0.14042,0.704 h -2.5585 -2.55851 z m 265.03392,-75.008 c 0.6378,-1.40154 3.5638,-5.60783 5.1046,-7.33795 3.8675,-4.34294 8.8481,-7.72937 13.2756,-9.02648 l 1.5944,-0.46712 0.542,-1.79222 c 0.68,-2.24873 2.7525,-6.31743 4.2776,-8.39775 3.8929,-5.31031 9.3688,-9.33555 15.4156,-11.33181 1.8559,-0.61271 2.609,-0.72075 5.12,-0.73452 2.852,-0.0156 2.9913,0.01 4.4575,0.81371 l 1.5135,0.82987 1.3353,-1.26284 c 4.8574,-4.59398 10.8769,-6.60011 23.876,-7.95721 9.0689,-0.94679 15.7959,-2.18213 16.0926,-2.95521 0.2169,-0.56534 -0.6359,-4.35486 -1.7017,-7.56121 -1.1542,-3.47256 -2.5856,-6.44039 -4.5094,-9.3498 -1.3108,-1.98231 -1.7293,-2.42294 -4.1747,-4.39591 -0.959,-0.77378 -1.0491,-0.94968 -1.0491,-2.04854 0,-0.66115 0.3463,-2.41145 0.7696,-3.88955 1.5511,-5.4165 1.5993,-11.30049 0.1446,-17.66346 -1.9834,-8.67522 -6.9412,-17.14334 -12.5267,-21.39606 -2.3393,-1.78109 -3.3036,-2.03436 -6.2754,-1.64812 -2.5325,0.32915 -3.6057,0.21228 -4.2091,-0.45833 -0.2145,-0.23842 -1.2408,-2.92321 -2.2806,-5.9662 -1.7162,-5.02242 -2.0537,-5.77797 -3.6583,-8.192 -1.247,-1.876 -2.7887,-3.68067 -5.2339,-6.12689 -3.9049,-3.906479 -6.9552,-6.402789 -15.6147,-12.778959 -13.2835,-9.78094 -15.4538,-11.9633 -23.3045,-23.433439 -3.7716,-5.510461 -6.5049,-9.058511 -8.9546,-11.623864 l -1.8104,-1.895867 -2.8648,3.017106 c -4.1558,4.376622 -6.5777,7.26848 -9.1021,10.868034 -7.9494,11.33518 -9.6169,12.98226 -23.9911,23.69698 -8.9355,6.66062 -12.264,9.42774 -15.6506,13.010919 -4.2198,4.46486 -6.782,8.79382 -8.3902,14.17538 -1.7582,5.88365 -1.7341,5.86009 -5.77,5.62917 -3.4923,-0.19981 -4.7781,0.11307 -7.0102,1.70587 -5.1175,3.65179 -10.1366,12.65973 -12.3607,22.18427 -1.2352,5.28956 -1.0696,10.84093 0.5371,18.0039 l 0.6792,3.02791 -2.135,2.22009 c -2.3428,2.43625 -4.0195,4.80905 -5.5755,7.89018 -1.0563,2.09177 -2.8911,6.80281 -3.1863,8.18113 l -0.1703,0.79521 2.5082,1.03215 c 4.3693,1.79798 7.4436,2.49306 16.1147,3.64338 3.1567,0.41877 6.801,0.94204 8.0985,1.16283 7.1749,1.22093 12.6125,3.59507 16.5694,7.2344 l 1.6325,1.50152 1.0386,-0.57544 c 3.1012,-1.71827 8.1126,-1.12607 13.527,1.59849 7.1833,3.61472 13.1437,10.68253 15.6101,18.51028 l 0.5543,1.7593 2.083,0.79125 c 6.2707,2.38194 12.696,8.27973 16.62,15.25542 1.2146,2.15928 1.4121,2.432 1.761,2.432 0.1853,0 0.4812,-0.3168 0.6574,-0.704 z m -6.7254,-46.59685 c -7.5234,-7.3159 -15.7103,-12.53119 -23.3462,-14.87232 -4.1929,-1.28549 -6.7238,-1.66566 -11.1266,-1.67132 -3.6899,-0.005 -4.2372,0.0598 -7.808,0.92053 -5.7543,1.38706 -5.4896,1.37134 -7.3486,0.43667 -2.9447,-1.48053 -5.2458,-3.25186 -6.3261,-4.86964 -1.6543,-2.47741 -1.9419,-3.65088 -1.9375,-7.90707 0,-4.31668 0.4388,-6.24306 2.2907,-10.15762 1.3575,-2.86939 2.3723,-4.40819 4.0547,-6.14847 l 1.2858,-1.33008 -0.4861,-1.99792 c -0.3482,-1.43105 -0.4808,-2.86952 -0.4671,-5.06991 0.035,-5.65882 1.6163,-10.07166 5.2064,-14.52927 1.7201,-2.13577 2.9331,-3.17229 4.8477,-4.1425 1.1645,-0.59007 1.634,-0.68026 3.2895,-0.63192 l 1.9312,0.0564 0.6957,-2.07359 c 0.9553,-2.84703 2.5302,-5.38977 4.8281,-7.79497 2.5688,-2.68865 4.1104,-3.88612 10.1737,-7.90237 8.546,-5.660759 10.3373,-7.247579 14.7085,-13.029769 2.8393,-3.75591 6.572,-7.72137 8.1243,-8.63113 l 1.0975,-0.64314 1.0372,0.71882 c 1.3228,0.91668 3.3991,3.24202 8.2624,9.25328 4.481,5.53868 5.8398,6.74508 12.7,11.275379 8.5627,5.65466 11.8905,8.4812 14.2142,12.07322 1.346,2.0808 1.8276,3.12113 2.4204,5.22918 l 0.4218,1.49961 2.1598,0.045 c 2.6393,0.055 4.1614,0.7467 6.464,2.93752 2.7948,2.65918 4.7521,5.91601 5.9751,9.94233 0.6093,2.00565 0.6863,2.68588 0.7041,6.21993 0.016,3.08071 -0.082,4.32934 -0.4369,5.58392 l -0.4568,1.61593 1.3085,1.43174 c 6.2491,6.83749 8.3038,16.35909 5.0086,23.21012 -1.0765,2.23822 -3.5869,5.04473 -5.5865,6.24569 -2.0665,1.24109 -3.2957,1.30259 -6.8654,0.34347 -8.2797,-2.22457 -16.3714,-1.45559 -25.0749,2.38295 -5.3337,2.35231 -11.7733,6.83668 -16.768,11.67672 -1.6896,1.63728 -3.3569,3.16871 -3.705,3.40317 -1.2511,0.84258 -1.6491,0.61713 -5.4702,-3.09856 z M 148.88366,313.51204 c -0.62691,-2.99185 -0.60074,-2.93829 -1.51985,-3.11071 -1.16862,-0.21924 -4.22185,-1.7206 -6.12251,-3.01061 -2.29564,-1.55809 -5.07607,-4.4396 -6.72537,-6.96985 -2.5179,-3.86279 -3.45573,-6.63056 -3.44865,-10.17777 0.004,-2.07232 0.0396,-2.19784 1.13762,-4.02335 l 1.13335,-1.88429 -1.41038,-2.05939 c -1.60366,-2.3416 -2.89351,-4.81431 -3.53923,-6.78487 -0.90964,-2.77599 -1.17201,-5.31609 -1.41936,-13.74134 -0.13618,-4.63879 -0.37369,-9.362 -0.5278,-10.496 -0.16904,-1.24385 -1.12717,-4.65161 -2.41513,-8.58982 -3.28961,-10.05874 -3.93196,-12.55753 -3.35187,-13.03896 0.71438,-0.59288 8.45293,-2.31856 12.15771,-2.71115 8.43453,-0.89377 9.94396,-1.31515 19.22415,-5.36667 5.95281,-2.59886 9.4346,-3.86245 12.41467,-4.50544 2.30801,-0.49798 7.29677,-0.39593 9.50164,0.19436 l 1.82165,0.4877 0.66696,-1.1865 c 1.92421,-3.42307 5.68145,-4.98994 11.81775,-4.92831 6.02533,0.0605 11.62465,2.36312 16.20493,6.66394 l 1.61293,1.51452 1.71507,-0.36251 c 2.49506,-0.52737 7.41546,-0.27913 10.55,0.53226 8.8277,2.28508 13.1758,7.13345 13.7408,15.32184 0.1886,2.73334 2e-4,3.09636 -3.1908,6.14675 -4.9888,4.76918 -7.8424,9.20206 -9.918,15.40746 -1.48,4.4245 -1.9221,7.0933 -2.0909,12.62121 -0.1786,5.84999 0.1622,10.05376 1.217,15.01043 0.413,1.94095 0.751,4.16441 0.751,4.94109 0,1.36926 -0.027,1.42336 -0.8874,1.78288 -0.4881,0.20396 -3.97293,1.24224 -7.74405,2.30733 -3.77112,1.06509 -8.0709,2.44818 -9.55506,3.07356 -8.29817,3.49653 -16.33161,10.26721 -20.49287,17.27166 l -1.059,1.78255 H 164.22943 149.3262 Z m 172.46408,1.85902 c -14.7385,-0.094 -20.6127,-0.21248 -20.8199,-0.41971 -0.4494,-0.44954 -0.7495,-2.15475 -0.5873,-3.33773 0.1151,-0.83976 0.022,-1.2748 -0.4281,-2.00333 -0.6666,-1.07855 -0.6102,-1.9032 0.27,-3.94926 0.662,-1.53899 0.9257,-1.70591 4.9672,-3.14404 3.5043,-1.24695 9.0282,-4.08765 11.7263,-6.03031 2.3844,-1.71681 4.665,-4.07306 5.8343,-6.02811 l 0.8318,-1.39061 1.8165,-0.13753 c 4.5676,-0.3458 10.3585,-3.42013 17.4325,-9.25468 4.3415,-3.58087 4.9451,-3.92345 7.5243,-4.27056 2.3244,-0.31281 2.8827,-0.10448 3.2095,1.19769 0.1247,0.49692 0.3214,0.62134 0.9831,0.62211 1.2417,0.003 2.3868,0.84444 3.5121,2.58547 2.0438,3.16221 3.587,8.21527 3.587,11.74559 v 2.21813 l 1.4316,1.64493 c 1.6681,1.91675 2.6402,3.72347 3.6911,6.86014 1.5331,4.5761 1.2611,8.41659 -0.7517,10.61248 -0.8203,0.89492 -0.9589,1.20335 -0.8541,1.90031 l 0.1252,0.832 -11.4851,-0.061 c -6.3167,-0.0335 -20.7241,-0.11994 -32.0163,-0.192 z m 72.467,-0.13921 c 0.099,-0.25674 -0.055,-0.47017 -0.4433,-0.61796 -1.651,-0.62771 -2.7256,-3.20292 -2.7225,-6.52431 0,-4.17739 0.8945,-7.05475 3.2693,-10.56246 1.833,-2.70746 1.8375,-2.72412 1.6718,-6.2476 -0.1281,-2.72292 -0.072,-3.4824 0.396,-5.32903 1.0335,-4.08143 3.5329,-8.20833 4.9773,-8.21837 0.7712,-0.005 1.0477,-0.23918 1.4453,-1.22186 0.4125,-1.01942 0.7148,-1.19467 2.7524,-1.59542 1.5576,-0.30633 1.608,-0.29836 2.816,0.44534 0.6765,0.41649 3.3036,2.22771 5.838,4.02496 6.9664,4.94016 11.0394,6.75126 15.744,7.00076 l 2.432,0.12899 1.1172,1.51117 c 2.5621,3.46547 6.6235,5.98569 14.9717,9.2905 8.2301,3.25806 8.2588,3.27375 9.5948,5.2525 0.8716,1.29091 1.0706,1.77946 0.9335,2.29182 -0.096,0.35814 -0.1911,1.57276 -0.2117,2.69916 -0.033,1.78473 -0.1574,2.29906 -0.9702,4.001 -0.513,1.07415 -1.3615,2.42775 -1.8858,3.008 l -0.9531,1.055 h -30.4616 c -27.2547,0 -30.4458,-0.0413 -30.3111,-0.39219 z m 176.3077,-1.39705 c -4.3935,-7.3953 -11.8465,-13.69226 -21.1701,-17.88633 -3.1815,-1.43114 -7.4756,-3.02884 -10.4653,-3.89379 -1.1264,-0.32588 -2.1327,-0.71447 -2.2361,-0.86356 -0.4731,-0.68191 -0.163,-3.29185 0.7376,-6.20821 3.6421,-11.79323 3.8214,-23.99388 0.4847,-32.97487 -1.7826,-4.79809 -3.706,-7.8374 -8.1817,-12.92877 l -2.2834,-2.59756 -0.1128,-1.96484 c -0.1745,-3.03912 0.3151,-6.29667 1.2242,-8.14624 1.6172,-3.29005 6.0528,-6.31592 11.0075,-7.50895 4.1355,-0.99579 9.5101,-0.93794 12.6746,0.13643 l 1.2106,0.41102 0.8014,-0.75197 c 2.2354,-2.09754 5.4281,-3.96572 8.6546,-5.06402 2.6648,-0.90711 5.2209,-1.22172 8.72,-1.07327 6.2313,0.26437 10.9993,2.73034 11.6139,6.0066 0.1572,0.8382 0.2134,0.88053 0.9659,0.72755 2.1338,-0.43383 7.0372,-0.4512 9.1048,-0.0322 3.9576,0.80191 6.0261,1.70452 16.9102,7.37891 6.0409,3.14942 8.7329,4.05062 15.5336,5.20023 6.1089,1.03266 8.0489,1.46062 10.1944,2.24886 l 1.536,0.56431 -0.046,1.40098 c -0.061,1.85437 -1.0222,4.83543 -3.2159,9.97698 -3.3747,7.90927 -3.8485,9.89896 -4.9192,20.65626 -1.0189,10.23692 -2.1113,14.26974 -5.0142,18.51174 -0.53,0.7744 -1.4363,1.89412 -2.0141,2.48827 l -1.0505,1.08029 0.8277,1.57904 c 1.4687,2.80184 1.2302,6.44075 -0.6975,10.64112 -3.028,6.59807 -8.8297,11.20087 -16.062,12.74294 -0.4682,0.0998 -0.704,0.31296 -0.704,0.63629 0,1.37702 1.0395,1.29605 -16.6382,1.29605 h -16.3275 z m -102.8034,-31.0393 c -0.8448,-0.46769 -2.8246,-1.68167 -4.3996,-2.69771 -7.378,-4.75968 -14.167,-7.48175 -18.66,-7.48175 h -1.8421 l -1.0902,-1.856 c -2.3373,-3.97891 -7.8885,-8.61107 -16.5226,-13.78729 -6.5102,-3.90295 -6.4626,-3.86158 -7.6353,-6.63213 l -0.9978,-2.35734 0.4218,-1.33812 c 0.5127,-1.62663 0.5254,-2.87218 0.038,-3.72512 -0.5382,-0.94149 -0.4813,-2.46275 0.1145,-3.0585 0.2741,-0.27417 0.9941,-0.626 1.6,-0.78184 3.9051,-1.00455 4.025,-1.07198 5.8214,-3.27381 1.2654,-1.55106 2.1697,-2.10185 3.4507,-2.10185 h 0.9001 l -0.5351,-0.90691 c -1.3769,-2.33366 0.7875,-4.87917 5.6236,-6.61388 2.0696,-0.74234 3.0455,-0.82413 4.3228,-0.36226 0.8478,0.30656 0.8677,0.29578 2.5782,-1.39425 1.813,-1.79142 2.171,-1.98969 5.0518,-2.79813 1.1245,-0.31557 2.5928,-1.02094 3.9421,-1.89373 1.9848,-1.28394 2.2662,-1.39084 3.6614,-1.39084 0.8313,0 2.3267,0.18544 3.3232,0.41209 3.5792,0.81406 4.5522,0.12987 7.0629,-4.96657 3.0269,-6.14412 5.5376,-8.0075 9.3592,-6.94631 1.2798,0.35537 1.9382,0.11069 4.095,-1.52176 1.983,-1.50096 3.0531,-1.68251 4.7662,-0.80859 2.0326,1.03695 2.5375,2.35879 2.0492,5.36519 -0.3938,2.42514 -0.2619,2.99746 1.0368,4.49795 1.2304,1.42159 1.3959,1.9917 1.1667,4.01753 -0.2715,2.40011 -0.9967,3.97065 -2.9915,6.47847 -3.6438,4.58115 -3.8989,6.41476 -1.2462,8.96 0.5869,0.5632 1.3487,1.57425 1.6928,2.24678 0.5785,1.13063 0.6238,1.48752 0.6006,4.736 -0.018,2.54321 0.086,3.86019 0.3763,4.76991 0.2207,0.69117 0.4013,1.67748 0.4013,2.19178 0,0.76777 -0.5623,3.36524 -1.175,5.42825 -0.089,0.3006 0.048,0.45364 0.4598,0.512 0.4933,0.07 0.6616,0.36962 1.0528,1.87528 0.5676,2.18447 0.6839,6.27011 0.2166,7.60763 -0.1828,0.52339 -0.6948,1.25652 -1.1377,1.62921 -0.7017,0.59041 -0.9628,0.65894 -2.0299,0.53256 l -1.2246,-0.14503 0.511,1.0016 c 0.6853,1.34334 0.6476,2.05107 -0.2671,5.02254 l -0.7782,2.52749 0.6502,2.08548 c 1.1308,3.62747 0.8612,4.23611 -2.0314,4.58657 -1.4026,0.16993 -1.6528,0.303 -3.0173,1.60451 l -1.4879,1.41921 -2.8707,0.091 c -2.8469,0.0903 -2.8834,0.084 -4.4066,-0.75934 z m -184.2302,0.38543 c -1.0555,-0.0841 -1.2709,-0.21128 -1.9031,-1.12369 -0.8276,-1.19416 -1.6038,-1.65015 -3.4859,-2.04774 -2.0977,-0.44314 -2.2528,-0.57953 -2.2528,-1.98001 0,-0.67348 0.1859,-1.85024 0.4132,-2.61499 0.5728,-1.92709 0.5027,-3.38439 -0.2664,-5.54565 -0.787,-2.21127 -0.81,-2.73613 -0.1744,-3.98269 l 0.4844,-0.95012 h -0.8518 c -2.515,0 -3.0455,-0.99336 -2.8634,-5.36154 0.1489,-3.57245 0.6201,-5.34633 1.6314,-6.1419 0.3458,-0.27195 0.7353,-0.53093 0.8656,-0.57551 0.1303,-0.0446 0,-0.82985 -0.2843,-1.74505 -0.659,-2.10397 -0.6917,-4.82696 -0.077,-6.4 0.3396,-0.86878 0.4546,-1.93871 0.468,-4.352 0.021,-3.74284 0.094,-3.93407 2.5394,-6.59847 0.9794,-1.06729 1.7193,-2.12596 1.8264,-2.6134 0.2967,-1.35121 -0.09,-2.96965 -1.0249,-4.28549 -0.4776,-0.67246 -1.2812,-1.80514 -1.7857,-2.51708 -1.8904,-2.66744 -3.0003,-7.75291 -2.0803,-9.5319 0.2323,-0.44926 0.6981,-0.99747 1.035,-1.21824 1.1319,-0.74163 1.4332,-1.82672 1.256,-4.52372 -0.1383,-2.1059 -0.095,-2.53989 0.3246,-3.25261 0.8196,-1.39225 3.0025,-2.44663 4.4612,-2.15489 0.4014,0.0803 1.4859,0.76962 2.41,1.53183 2.1929,1.80878 2.6508,1.96996 4.5408,1.59813 2.3018,-0.45285 3.1191,-0.10663 5.3257,2.25619 1.9581,2.0967 2.6753,3.30428 3.5597,5.99344 0.7518,2.28605 1.8064,3.88255 2.9109,4.40666 1.1142,0.52873 1.7957,0.53838 3.4112,0.0483 2.7063,-0.82098 4.3593,-0.44579 7.5456,1.71255 0.9244,0.62626 2.6524,1.47506 3.84,1.88623 1.937,0.67069 2.3708,0.95018 4.2177,2.71709 1.5468,1.47975 2.1515,1.91078 2.432,1.73335 1.0444,-0.66059 3.6001,0.15911 6.7934,2.17886 3.2238,2.03903 3.7654,3.1061 2.668,5.25715 -0.2816,0.55198 -0.5117,1.03699 -0.5112,1.0778 0,0.0408 0.4602,0.0798 1.0218,0.0866 1.2936,0.0157 2.135,0.63432 3.4967,2.57117 1.2897,1.83421 1.9819,2.28211 4.3364,2.80595 2.3343,0.51933 3.4323,1.17167 3.4323,2.03923 0,0.35875 -0.3054,1.25324 -0.6787,1.98776 l -0.6786,1.33549 0.4248,1.664 c 0.2336,0.9152 0.4219,1.8944 0.4183,2.176 -0.01,0.56041 -2.0908,4.58683 -2.7546,5.32257 -0.2276,0.25224 -1.9756,1.22568 -3.8845,2.16323 -9.0421,4.44096 -15.2706,8.96581 -17.9347,13.02917 l -1.152,1.75703 -2.304,0.0552 c -5.184,0.12424 -11.2051,2.36401 -22.8786,8.51067 -3.7153,1.9563 -3.792,1.9713 -8.2636,1.61503 z"
       id="path1220" />
  </g>
</svg>
