%TF.GenerationSoftware,KiCad,Pcbnew,8.0.4*%
%TF.CreationDate,2025-01-14T19:01:53-06:00*%
%TF.ProjectId,DynaControllersquare,44796e61-436f-46e7-9472-6f6c6c657273,rev?*%
%TF.SameCoordinates,Original*%
%TF.FileFunction,Profile,NP*%
%FSLAX46Y46*%
G04 Gerber Fmt 4.6, Leading zero omitted, Abs format (unit mm)*
G04 Created by KiCad (PCBNEW 8.0.4) date 2025-01-14 19:01:53*
%MOMM*%
%LPD*%
G01*
G04 APERTURE LIST*
%TA.AperFunction,Profile*%
%ADD10C,0.200000*%
%TD*%
G04 APERTURE END LIST*
D10*
X59950000Y-139125000D02*
G75*
G02*
X54950000Y-134125000I0J5000000D01*
G01*
X135000000Y-54075000D02*
G75*
G02*
X140000000Y-59075000I0J-5000000D01*
G01*
X135000000Y-139125000D02*
X59950000Y-139125000D01*
X59950000Y-54075000D02*
X135000000Y-54075000D01*
X140000000Y-59075000D02*
X140000000Y-134125000D01*
X140000000Y-134125000D02*
G75*
G02*
X135000000Y-139125000I-5000000J0D01*
G01*
X54950000Y-134125000D02*
X54950000Y-59075000D01*
X54950000Y-59075000D02*
G75*
G02*
X59950000Y-54075000I5000000J0D01*
G01*
X237403110Y-59254054D02*
X237403110Y-134304054D01*
X152353110Y-134304054D02*
X152353110Y-59254054D01*
X157353110Y-139304054D02*
G75*
G02*
X152353146Y-134304054I-10J4999954D01*
G01*
X152353110Y-59254054D02*
G75*
G02*
X157353110Y-54254050I5000000J4D01*
G01*
X232403110Y-54254054D02*
G75*
G02*
X237403146Y-59254054I-10J-5000046D01*
G01*
X157353110Y-54254054D02*
X232403110Y-54254054D01*
X237403110Y-134304054D02*
G75*
G02*
X232403110Y-139304110I-5000010J-46D01*
G01*
X232403110Y-139304054D02*
X157353110Y-139304054D01*
X332269946Y-59385246D02*
X332269946Y-134435246D01*
X327269946Y-139435246D02*
X252219946Y-139435246D01*
X247219946Y-134435246D02*
X247219946Y-59385246D01*
X327269946Y-54385246D02*
G75*
G02*
X332269954Y-59385246I54J-4999954D01*
G01*
X252219946Y-139435246D02*
G75*
G02*
X247219944Y-134435246I14J5000016D01*
G01*
X252219946Y-54385246D02*
X327269946Y-54385246D01*
X247219946Y-59385246D02*
G75*
G02*
X252219946Y-54385246I4999994J6D01*
G01*
X332269946Y-134435246D02*
G75*
G02*
X327269946Y-139435246I-4999916J-84D01*
G01*
M02*
