%TF.GenerationSoftware,KiCad,Pcbnew,8.0.4*%
%TF.CreationDate,2025-01-14T19:01:53-06:00*%
%TF.ProjectId,DynaControllersquare,44796e61-436f-46e7-9472-6f6c6c657273,rev?*%
%TF.SameCoordinates,Original*%
%TF.FileFunction,Other,Comment*%
%FSLAX46Y46*%
G04 Gerber Fmt 4.6, Leading zero omitted, Abs format (unit mm)*
G04 Created by KiCad (PCBNEW 8.0.4) date 2025-01-14 19:01:53*
%MOMM*%
%LPD*%
G01*
G04 APERTURE LIST*
%ADD10C,0.150000*%
G04 APERTURE END LIST*
D10*
X53099821Y-80764524D02*
X53814106Y-80764524D01*
X53814106Y-80764524D02*
X53956963Y-80812143D01*
X53956963Y-80812143D02*
X54052202Y-80907381D01*
X54052202Y-80907381D02*
X54099821Y-81050238D01*
X54099821Y-81050238D02*
X54099821Y-81145476D01*
X54099821Y-79764524D02*
X54099821Y-80335952D01*
X54099821Y-80050238D02*
X53099821Y-80050238D01*
X53099821Y-80050238D02*
X53242678Y-80145476D01*
X53242678Y-80145476D02*
X53337916Y-80240714D01*
X53337916Y-80240714D02*
X53385535Y-80335952D01*
X53433154Y-78907381D02*
X54099821Y-78907381D01*
X53052202Y-79145476D02*
X53766487Y-79383571D01*
X53766487Y-79383571D02*
X53766487Y-78764524D01*
X89938332Y-139957438D02*
X89843094Y-139909819D01*
X89843094Y-139909819D02*
X89700237Y-139909819D01*
X89700237Y-139909819D02*
X89557380Y-139957438D01*
X89557380Y-139957438D02*
X89462142Y-140052676D01*
X89462142Y-140052676D02*
X89414523Y-140147914D01*
X89414523Y-140147914D02*
X89366904Y-140338390D01*
X89366904Y-140338390D02*
X89366904Y-140481247D01*
X89366904Y-140481247D02*
X89414523Y-140671723D01*
X89414523Y-140671723D02*
X89462142Y-140766961D01*
X89462142Y-140766961D02*
X89557380Y-140862200D01*
X89557380Y-140862200D02*
X89700237Y-140909819D01*
X89700237Y-140909819D02*
X89795475Y-140909819D01*
X89795475Y-140909819D02*
X89938332Y-140862200D01*
X89938332Y-140862200D02*
X89985951Y-140814580D01*
X89985951Y-140814580D02*
X89985951Y-140481247D01*
X89985951Y-140481247D02*
X89795475Y-140481247D01*
X90414523Y-140909819D02*
X90414523Y-139909819D01*
X90414523Y-139909819D02*
X90985951Y-140909819D01*
X90985951Y-140909819D02*
X90985951Y-139909819D01*
X91462142Y-140909819D02*
X91462142Y-139909819D01*
X91462142Y-139909819D02*
X91700237Y-139909819D01*
X91700237Y-139909819D02*
X91843094Y-139957438D01*
X91843094Y-139957438D02*
X91938332Y-140052676D01*
X91938332Y-140052676D02*
X91985951Y-140147914D01*
X91985951Y-140147914D02*
X92033570Y-140338390D01*
X92033570Y-140338390D02*
X92033570Y-140481247D01*
X92033570Y-140481247D02*
X91985951Y-140671723D01*
X91985951Y-140671723D02*
X91938332Y-140766961D01*
X91938332Y-140766961D02*
X91843094Y-140862200D01*
X91843094Y-140862200D02*
X91700237Y-140909819D01*
X91700237Y-140909819D02*
X91462142Y-140909819D01*
X92224047Y-141005057D02*
X92985951Y-141005057D01*
X93224047Y-140243152D02*
X93224047Y-141243152D01*
X93224047Y-140290771D02*
X93319285Y-140243152D01*
X93319285Y-140243152D02*
X93509761Y-140243152D01*
X93509761Y-140243152D02*
X93604999Y-140290771D01*
X93604999Y-140290771D02*
X93652618Y-140338390D01*
X93652618Y-140338390D02*
X93700237Y-140433628D01*
X93700237Y-140433628D02*
X93700237Y-140719342D01*
X93700237Y-140719342D02*
X93652618Y-140814580D01*
X93652618Y-140814580D02*
X93604999Y-140862200D01*
X93604999Y-140862200D02*
X93509761Y-140909819D01*
X93509761Y-140909819D02*
X93319285Y-140909819D01*
X93319285Y-140909819D02*
X93224047Y-140862200D01*
X94271666Y-140909819D02*
X94176428Y-140862200D01*
X94176428Y-140862200D02*
X94128809Y-140766961D01*
X94128809Y-140766961D02*
X94128809Y-139909819D01*
X95081190Y-140909819D02*
X95081190Y-140386009D01*
X95081190Y-140386009D02*
X95033571Y-140290771D01*
X95033571Y-140290771D02*
X94938333Y-140243152D01*
X94938333Y-140243152D02*
X94747857Y-140243152D01*
X94747857Y-140243152D02*
X94652619Y-140290771D01*
X95081190Y-140862200D02*
X94985952Y-140909819D01*
X94985952Y-140909819D02*
X94747857Y-140909819D01*
X94747857Y-140909819D02*
X94652619Y-140862200D01*
X94652619Y-140862200D02*
X94605000Y-140766961D01*
X94605000Y-140766961D02*
X94605000Y-140671723D01*
X94605000Y-140671723D02*
X94652619Y-140576485D01*
X94652619Y-140576485D02*
X94747857Y-140528866D01*
X94747857Y-140528866D02*
X94985952Y-140528866D01*
X94985952Y-140528866D02*
X95081190Y-140481247D01*
X95557381Y-140243152D02*
X95557381Y-140909819D01*
X95557381Y-140338390D02*
X95605000Y-140290771D01*
X95605000Y-140290771D02*
X95700238Y-140243152D01*
X95700238Y-140243152D02*
X95843095Y-140243152D01*
X95843095Y-140243152D02*
X95938333Y-140290771D01*
X95938333Y-140290771D02*
X95985952Y-140386009D01*
X95985952Y-140386009D02*
X95985952Y-140909819D01*
X96843095Y-140862200D02*
X96747857Y-140909819D01*
X96747857Y-140909819D02*
X96557381Y-140909819D01*
X96557381Y-140909819D02*
X96462143Y-140862200D01*
X96462143Y-140862200D02*
X96414524Y-140766961D01*
X96414524Y-140766961D02*
X96414524Y-140386009D01*
X96414524Y-140386009D02*
X96462143Y-140290771D01*
X96462143Y-140290771D02*
X96557381Y-140243152D01*
X96557381Y-140243152D02*
X96747857Y-140243152D01*
X96747857Y-140243152D02*
X96843095Y-140290771D01*
X96843095Y-140290771D02*
X96890714Y-140386009D01*
X96890714Y-140386009D02*
X96890714Y-140481247D01*
X96890714Y-140481247D02*
X96414524Y-140576485D01*
X97795476Y-139909819D02*
X97319286Y-139909819D01*
X97319286Y-139909819D02*
X97271667Y-140386009D01*
X97271667Y-140386009D02*
X97319286Y-140338390D01*
X97319286Y-140338390D02*
X97414524Y-140290771D01*
X97414524Y-140290771D02*
X97652619Y-140290771D01*
X97652619Y-140290771D02*
X97747857Y-140338390D01*
X97747857Y-140338390D02*
X97795476Y-140386009D01*
X97795476Y-140386009D02*
X97843095Y-140481247D01*
X97843095Y-140481247D02*
X97843095Y-140719342D01*
X97843095Y-140719342D02*
X97795476Y-140814580D01*
X97795476Y-140814580D02*
X97747857Y-140862200D01*
X97747857Y-140862200D02*
X97652619Y-140909819D01*
X97652619Y-140909819D02*
X97414524Y-140909819D01*
X97414524Y-140909819D02*
X97319286Y-140862200D01*
X97319286Y-140862200D02*
X97271667Y-140814580D01*
X140759819Y-97303334D02*
X141474104Y-97303334D01*
X141474104Y-97303334D02*
X141616961Y-97350953D01*
X141616961Y-97350953D02*
X141712200Y-97446191D01*
X141712200Y-97446191D02*
X141759819Y-97589048D01*
X141759819Y-97589048D02*
X141759819Y-97684286D01*
X140759819Y-96350953D02*
X140759819Y-96827143D01*
X140759819Y-96827143D02*
X141236009Y-96874762D01*
X141236009Y-96874762D02*
X141188390Y-96827143D01*
X141188390Y-96827143D02*
X141140771Y-96731905D01*
X141140771Y-96731905D02*
X141140771Y-96493810D01*
X141140771Y-96493810D02*
X141188390Y-96398572D01*
X141188390Y-96398572D02*
X141236009Y-96350953D01*
X141236009Y-96350953D02*
X141331247Y-96303334D01*
X141331247Y-96303334D02*
X141569342Y-96303334D01*
X141569342Y-96303334D02*
X141664580Y-96350953D01*
X141664580Y-96350953D02*
X141712200Y-96398572D01*
X141712200Y-96398572D02*
X141759819Y-96493810D01*
X141759819Y-96493810D02*
X141759819Y-96731905D01*
X141759819Y-96731905D02*
X141712200Y-96827143D01*
X141712200Y-96827143D02*
X141664580Y-96874762D01*
X140759819Y-105828334D02*
X141474104Y-105828334D01*
X141474104Y-105828334D02*
X141616961Y-105875953D01*
X141616961Y-105875953D02*
X141712200Y-105971191D01*
X141712200Y-105971191D02*
X141759819Y-106114048D01*
X141759819Y-106114048D02*
X141759819Y-106209286D01*
X140759819Y-104923572D02*
X140759819Y-105114048D01*
X140759819Y-105114048D02*
X140807438Y-105209286D01*
X140807438Y-105209286D02*
X140855057Y-105256905D01*
X140855057Y-105256905D02*
X140997914Y-105352143D01*
X140997914Y-105352143D02*
X141188390Y-105399762D01*
X141188390Y-105399762D02*
X141569342Y-105399762D01*
X141569342Y-105399762D02*
X141664580Y-105352143D01*
X141664580Y-105352143D02*
X141712200Y-105304524D01*
X141712200Y-105304524D02*
X141759819Y-105209286D01*
X141759819Y-105209286D02*
X141759819Y-105018810D01*
X141759819Y-105018810D02*
X141712200Y-104923572D01*
X141712200Y-104923572D02*
X141664580Y-104875953D01*
X141664580Y-104875953D02*
X141569342Y-104828334D01*
X141569342Y-104828334D02*
X141331247Y-104828334D01*
X141331247Y-104828334D02*
X141236009Y-104875953D01*
X141236009Y-104875953D02*
X141188390Y-104923572D01*
X141188390Y-104923572D02*
X141140771Y-105018810D01*
X141140771Y-105018810D02*
X141140771Y-105209286D01*
X141140771Y-105209286D02*
X141188390Y-105304524D01*
X141188390Y-105304524D02*
X141236009Y-105352143D01*
X141236009Y-105352143D02*
X141331247Y-105399762D01*
X53099819Y-97814523D02*
X53814104Y-97814523D01*
X53814104Y-97814523D02*
X53956961Y-97862142D01*
X53956961Y-97862142D02*
X54052200Y-97957380D01*
X54052200Y-97957380D02*
X54099819Y-98100237D01*
X54099819Y-98100237D02*
X54099819Y-98195475D01*
X54099819Y-96814523D02*
X54099819Y-97385951D01*
X54099819Y-97100237D02*
X53099819Y-97100237D01*
X53099819Y-97100237D02*
X53242676Y-97195475D01*
X53242676Y-97195475D02*
X53337914Y-97290713D01*
X53337914Y-97290713D02*
X53385533Y-97385951D01*
X53195057Y-96433570D02*
X53147438Y-96385951D01*
X53147438Y-96385951D02*
X53099819Y-96290713D01*
X53099819Y-96290713D02*
X53099819Y-96052618D01*
X53099819Y-96052618D02*
X53147438Y-95957380D01*
X53147438Y-95957380D02*
X53195057Y-95909761D01*
X53195057Y-95909761D02*
X53290295Y-95862142D01*
X53290295Y-95862142D02*
X53385533Y-95862142D01*
X53385533Y-95862142D02*
X53528390Y-95909761D01*
X53528390Y-95909761D02*
X54099819Y-96481189D01*
X54099819Y-96481189D02*
X54099819Y-95862142D01*
X53099819Y-89289523D02*
X53814104Y-89289523D01*
X53814104Y-89289523D02*
X53956961Y-89337142D01*
X53956961Y-89337142D02*
X54052200Y-89432380D01*
X54052200Y-89432380D02*
X54099819Y-89575237D01*
X54099819Y-89575237D02*
X54099819Y-89670475D01*
X54099819Y-88289523D02*
X54099819Y-88860951D01*
X54099819Y-88575237D02*
X53099819Y-88575237D01*
X53099819Y-88575237D02*
X53242676Y-88670475D01*
X53242676Y-88670475D02*
X53337914Y-88765713D01*
X53337914Y-88765713D02*
X53385533Y-88860951D01*
X53099819Y-87956189D02*
X53099819Y-87337142D01*
X53099819Y-87337142D02*
X53480771Y-87670475D01*
X53480771Y-87670475D02*
X53480771Y-87527618D01*
X53480771Y-87527618D02*
X53528390Y-87432380D01*
X53528390Y-87432380D02*
X53576009Y-87384761D01*
X53576009Y-87384761D02*
X53671247Y-87337142D01*
X53671247Y-87337142D02*
X53909342Y-87337142D01*
X53909342Y-87337142D02*
X54004580Y-87384761D01*
X54004580Y-87384761D02*
X54052200Y-87432380D01*
X54052200Y-87432380D02*
X54099819Y-87527618D01*
X54099819Y-87527618D02*
X54099819Y-87813332D01*
X54099819Y-87813332D02*
X54052200Y-87908570D01*
X54052200Y-87908570D02*
X54004580Y-87956189D01*
X98453332Y-139957438D02*
X98358094Y-139909819D01*
X98358094Y-139909819D02*
X98215237Y-139909819D01*
X98215237Y-139909819D02*
X98072380Y-139957438D01*
X98072380Y-139957438D02*
X97977142Y-140052676D01*
X97977142Y-140052676D02*
X97929523Y-140147914D01*
X97929523Y-140147914D02*
X97881904Y-140338390D01*
X97881904Y-140338390D02*
X97881904Y-140481247D01*
X97881904Y-140481247D02*
X97929523Y-140671723D01*
X97929523Y-140671723D02*
X97977142Y-140766961D01*
X97977142Y-140766961D02*
X98072380Y-140862200D01*
X98072380Y-140862200D02*
X98215237Y-140909819D01*
X98215237Y-140909819D02*
X98310475Y-140909819D01*
X98310475Y-140909819D02*
X98453332Y-140862200D01*
X98453332Y-140862200D02*
X98500951Y-140814580D01*
X98500951Y-140814580D02*
X98500951Y-140481247D01*
X98500951Y-140481247D02*
X98310475Y-140481247D01*
X98929523Y-140909819D02*
X98929523Y-139909819D01*
X98929523Y-139909819D02*
X99500951Y-140909819D01*
X99500951Y-140909819D02*
X99500951Y-139909819D01*
X99977142Y-140909819D02*
X99977142Y-139909819D01*
X99977142Y-139909819D02*
X100215237Y-139909819D01*
X100215237Y-139909819D02*
X100358094Y-139957438D01*
X100358094Y-139957438D02*
X100453332Y-140052676D01*
X100453332Y-140052676D02*
X100500951Y-140147914D01*
X100500951Y-140147914D02*
X100548570Y-140338390D01*
X100548570Y-140338390D02*
X100548570Y-140481247D01*
X100548570Y-140481247D02*
X100500951Y-140671723D01*
X100500951Y-140671723D02*
X100453332Y-140766961D01*
X100453332Y-140766961D02*
X100358094Y-140862200D01*
X100358094Y-140862200D02*
X100215237Y-140909819D01*
X100215237Y-140909819D02*
X99977142Y-140909819D01*
X100739047Y-141005057D02*
X101500951Y-141005057D01*
X101739047Y-140243152D02*
X101739047Y-141243152D01*
X101739047Y-140290771D02*
X101834285Y-140243152D01*
X101834285Y-140243152D02*
X102024761Y-140243152D01*
X102024761Y-140243152D02*
X102119999Y-140290771D01*
X102119999Y-140290771D02*
X102167618Y-140338390D01*
X102167618Y-140338390D02*
X102215237Y-140433628D01*
X102215237Y-140433628D02*
X102215237Y-140719342D01*
X102215237Y-140719342D02*
X102167618Y-140814580D01*
X102167618Y-140814580D02*
X102119999Y-140862200D01*
X102119999Y-140862200D02*
X102024761Y-140909819D01*
X102024761Y-140909819D02*
X101834285Y-140909819D01*
X101834285Y-140909819D02*
X101739047Y-140862200D01*
X102786666Y-140909819D02*
X102691428Y-140862200D01*
X102691428Y-140862200D02*
X102643809Y-140766961D01*
X102643809Y-140766961D02*
X102643809Y-139909819D01*
X103596190Y-140909819D02*
X103596190Y-140386009D01*
X103596190Y-140386009D02*
X103548571Y-140290771D01*
X103548571Y-140290771D02*
X103453333Y-140243152D01*
X103453333Y-140243152D02*
X103262857Y-140243152D01*
X103262857Y-140243152D02*
X103167619Y-140290771D01*
X103596190Y-140862200D02*
X103500952Y-140909819D01*
X103500952Y-140909819D02*
X103262857Y-140909819D01*
X103262857Y-140909819D02*
X103167619Y-140862200D01*
X103167619Y-140862200D02*
X103120000Y-140766961D01*
X103120000Y-140766961D02*
X103120000Y-140671723D01*
X103120000Y-140671723D02*
X103167619Y-140576485D01*
X103167619Y-140576485D02*
X103262857Y-140528866D01*
X103262857Y-140528866D02*
X103500952Y-140528866D01*
X103500952Y-140528866D02*
X103596190Y-140481247D01*
X104072381Y-140243152D02*
X104072381Y-140909819D01*
X104072381Y-140338390D02*
X104120000Y-140290771D01*
X104120000Y-140290771D02*
X104215238Y-140243152D01*
X104215238Y-140243152D02*
X104358095Y-140243152D01*
X104358095Y-140243152D02*
X104453333Y-140290771D01*
X104453333Y-140290771D02*
X104500952Y-140386009D01*
X104500952Y-140386009D02*
X104500952Y-140909819D01*
X105358095Y-140862200D02*
X105262857Y-140909819D01*
X105262857Y-140909819D02*
X105072381Y-140909819D01*
X105072381Y-140909819D02*
X104977143Y-140862200D01*
X104977143Y-140862200D02*
X104929524Y-140766961D01*
X104929524Y-140766961D02*
X104929524Y-140386009D01*
X104929524Y-140386009D02*
X104977143Y-140290771D01*
X104977143Y-140290771D02*
X105072381Y-140243152D01*
X105072381Y-140243152D02*
X105262857Y-140243152D01*
X105262857Y-140243152D02*
X105358095Y-140290771D01*
X105358095Y-140290771D02*
X105405714Y-140386009D01*
X105405714Y-140386009D02*
X105405714Y-140481247D01*
X105405714Y-140481247D02*
X104929524Y-140576485D01*
X106262857Y-139909819D02*
X106072381Y-139909819D01*
X106072381Y-139909819D02*
X105977143Y-139957438D01*
X105977143Y-139957438D02*
X105929524Y-140005057D01*
X105929524Y-140005057D02*
X105834286Y-140147914D01*
X105834286Y-140147914D02*
X105786667Y-140338390D01*
X105786667Y-140338390D02*
X105786667Y-140719342D01*
X105786667Y-140719342D02*
X105834286Y-140814580D01*
X105834286Y-140814580D02*
X105881905Y-140862200D01*
X105881905Y-140862200D02*
X105977143Y-140909819D01*
X105977143Y-140909819D02*
X106167619Y-140909819D01*
X106167619Y-140909819D02*
X106262857Y-140862200D01*
X106262857Y-140862200D02*
X106310476Y-140814580D01*
X106310476Y-140814580D02*
X106358095Y-140719342D01*
X106358095Y-140719342D02*
X106358095Y-140481247D01*
X106358095Y-140481247D02*
X106310476Y-140386009D01*
X106310476Y-140386009D02*
X106262857Y-140338390D01*
X106262857Y-140338390D02*
X106167619Y-140290771D01*
X106167619Y-140290771D02*
X105977143Y-140290771D01*
X105977143Y-140290771D02*
X105881905Y-140338390D01*
X105881905Y-140338390D02*
X105834286Y-140386009D01*
X105834286Y-140386009D02*
X105786667Y-140481247D01*
X53147441Y-75071669D02*
X53099822Y-75166907D01*
X53099822Y-75166907D02*
X53099822Y-75309764D01*
X53099822Y-75309764D02*
X53147441Y-75452621D01*
X53147441Y-75452621D02*
X53242679Y-75547859D01*
X53242679Y-75547859D02*
X53337917Y-75595478D01*
X53337917Y-75595478D02*
X53528393Y-75643097D01*
X53528393Y-75643097D02*
X53671250Y-75643097D01*
X53671250Y-75643097D02*
X53861726Y-75595478D01*
X53861726Y-75595478D02*
X53956964Y-75547859D01*
X53956964Y-75547859D02*
X54052203Y-75452621D01*
X54052203Y-75452621D02*
X54099822Y-75309764D01*
X54099822Y-75309764D02*
X54099822Y-75214526D01*
X54099822Y-75214526D02*
X54052203Y-75071669D01*
X54052203Y-75071669D02*
X54004583Y-75024050D01*
X54004583Y-75024050D02*
X53671250Y-75024050D01*
X53671250Y-75024050D02*
X53671250Y-75214526D01*
X54099822Y-74595478D02*
X53099822Y-74595478D01*
X53099822Y-74595478D02*
X54099822Y-74024050D01*
X54099822Y-74024050D02*
X53099822Y-74024050D01*
X54099822Y-73547859D02*
X53099822Y-73547859D01*
X53099822Y-73547859D02*
X53099822Y-73309764D01*
X53099822Y-73309764D02*
X53147441Y-73166907D01*
X53147441Y-73166907D02*
X53242679Y-73071669D01*
X53242679Y-73071669D02*
X53337917Y-73024050D01*
X53337917Y-73024050D02*
X53528393Y-72976431D01*
X53528393Y-72976431D02*
X53671250Y-72976431D01*
X53671250Y-72976431D02*
X53861726Y-73024050D01*
X53861726Y-73024050D02*
X53956964Y-73071669D01*
X53956964Y-73071669D02*
X54052203Y-73166907D01*
X54052203Y-73166907D02*
X54099822Y-73309764D01*
X54099822Y-73309764D02*
X54099822Y-73547859D01*
X54195060Y-72785955D02*
X54195060Y-72024050D01*
X53433155Y-71785954D02*
X54433155Y-71785954D01*
X53480774Y-71785954D02*
X53433155Y-71690716D01*
X53433155Y-71690716D02*
X53433155Y-71500240D01*
X53433155Y-71500240D02*
X53480774Y-71405002D01*
X53480774Y-71405002D02*
X53528393Y-71357383D01*
X53528393Y-71357383D02*
X53623631Y-71309764D01*
X53623631Y-71309764D02*
X53909345Y-71309764D01*
X53909345Y-71309764D02*
X54004583Y-71357383D01*
X54004583Y-71357383D02*
X54052203Y-71405002D01*
X54052203Y-71405002D02*
X54099822Y-71500240D01*
X54099822Y-71500240D02*
X54099822Y-71690716D01*
X54099822Y-71690716D02*
X54052203Y-71785954D01*
X54099822Y-70738335D02*
X54052203Y-70833573D01*
X54052203Y-70833573D02*
X53956964Y-70881192D01*
X53956964Y-70881192D02*
X53099822Y-70881192D01*
X54099822Y-69928811D02*
X53576012Y-69928811D01*
X53576012Y-69928811D02*
X53480774Y-69976430D01*
X53480774Y-69976430D02*
X53433155Y-70071668D01*
X53433155Y-70071668D02*
X53433155Y-70262144D01*
X53433155Y-70262144D02*
X53480774Y-70357382D01*
X54052203Y-69928811D02*
X54099822Y-70024049D01*
X54099822Y-70024049D02*
X54099822Y-70262144D01*
X54099822Y-70262144D02*
X54052203Y-70357382D01*
X54052203Y-70357382D02*
X53956964Y-70405001D01*
X53956964Y-70405001D02*
X53861726Y-70405001D01*
X53861726Y-70405001D02*
X53766488Y-70357382D01*
X53766488Y-70357382D02*
X53718869Y-70262144D01*
X53718869Y-70262144D02*
X53718869Y-70024049D01*
X53718869Y-70024049D02*
X53671250Y-69928811D01*
X53433155Y-69452620D02*
X54099822Y-69452620D01*
X53528393Y-69452620D02*
X53480774Y-69405001D01*
X53480774Y-69405001D02*
X53433155Y-69309763D01*
X53433155Y-69309763D02*
X53433155Y-69166906D01*
X53433155Y-69166906D02*
X53480774Y-69071668D01*
X53480774Y-69071668D02*
X53576012Y-69024049D01*
X53576012Y-69024049D02*
X54099822Y-69024049D01*
X54052203Y-68166906D02*
X54099822Y-68262144D01*
X54099822Y-68262144D02*
X54099822Y-68452620D01*
X54099822Y-68452620D02*
X54052203Y-68547858D01*
X54052203Y-68547858D02*
X53956964Y-68595477D01*
X53956964Y-68595477D02*
X53576012Y-68595477D01*
X53576012Y-68595477D02*
X53480774Y-68547858D01*
X53480774Y-68547858D02*
X53433155Y-68452620D01*
X53433155Y-68452620D02*
X53433155Y-68262144D01*
X53433155Y-68262144D02*
X53480774Y-68166906D01*
X53480774Y-68166906D02*
X53576012Y-68119287D01*
X53576012Y-68119287D02*
X53671250Y-68119287D01*
X53671250Y-68119287D02*
X53766488Y-68595477D01*
X53195060Y-67738334D02*
X53147441Y-67690715D01*
X53147441Y-67690715D02*
X53099822Y-67595477D01*
X53099822Y-67595477D02*
X53099822Y-67357382D01*
X53099822Y-67357382D02*
X53147441Y-67262144D01*
X53147441Y-67262144D02*
X53195060Y-67214525D01*
X53195060Y-67214525D02*
X53290298Y-67166906D01*
X53290298Y-67166906D02*
X53385536Y-67166906D01*
X53385536Y-67166906D02*
X53528393Y-67214525D01*
X53528393Y-67214525D02*
X54099822Y-67785953D01*
X54099822Y-67785953D02*
X54099822Y-67166906D01*
X53099819Y-106339523D02*
X53814104Y-106339523D01*
X53814104Y-106339523D02*
X53956961Y-106387142D01*
X53956961Y-106387142D02*
X54052200Y-106482380D01*
X54052200Y-106482380D02*
X54099819Y-106625237D01*
X54099819Y-106625237D02*
X54099819Y-106720475D01*
X54099819Y-105339523D02*
X54099819Y-105910951D01*
X54099819Y-105625237D02*
X53099819Y-105625237D01*
X53099819Y-105625237D02*
X53242676Y-105720475D01*
X53242676Y-105720475D02*
X53337914Y-105815713D01*
X53337914Y-105815713D02*
X53385533Y-105910951D01*
X54099819Y-104387142D02*
X54099819Y-104958570D01*
X54099819Y-104672856D02*
X53099819Y-104672856D01*
X53099819Y-104672856D02*
X53242676Y-104768094D01*
X53242676Y-104768094D02*
X53337914Y-104863332D01*
X53337914Y-104863332D02*
X53385533Y-104958570D01*
X72888332Y-139957438D02*
X72793094Y-139909819D01*
X72793094Y-139909819D02*
X72650237Y-139909819D01*
X72650237Y-139909819D02*
X72507380Y-139957438D01*
X72507380Y-139957438D02*
X72412142Y-140052676D01*
X72412142Y-140052676D02*
X72364523Y-140147914D01*
X72364523Y-140147914D02*
X72316904Y-140338390D01*
X72316904Y-140338390D02*
X72316904Y-140481247D01*
X72316904Y-140481247D02*
X72364523Y-140671723D01*
X72364523Y-140671723D02*
X72412142Y-140766961D01*
X72412142Y-140766961D02*
X72507380Y-140862200D01*
X72507380Y-140862200D02*
X72650237Y-140909819D01*
X72650237Y-140909819D02*
X72745475Y-140909819D01*
X72745475Y-140909819D02*
X72888332Y-140862200D01*
X72888332Y-140862200D02*
X72935951Y-140814580D01*
X72935951Y-140814580D02*
X72935951Y-140481247D01*
X72935951Y-140481247D02*
X72745475Y-140481247D01*
X73364523Y-140909819D02*
X73364523Y-139909819D01*
X73364523Y-139909819D02*
X73935951Y-140909819D01*
X73935951Y-140909819D02*
X73935951Y-139909819D01*
X74412142Y-140909819D02*
X74412142Y-139909819D01*
X74412142Y-139909819D02*
X74650237Y-139909819D01*
X74650237Y-139909819D02*
X74793094Y-139957438D01*
X74793094Y-139957438D02*
X74888332Y-140052676D01*
X74888332Y-140052676D02*
X74935951Y-140147914D01*
X74935951Y-140147914D02*
X74983570Y-140338390D01*
X74983570Y-140338390D02*
X74983570Y-140481247D01*
X74983570Y-140481247D02*
X74935951Y-140671723D01*
X74935951Y-140671723D02*
X74888332Y-140766961D01*
X74888332Y-140766961D02*
X74793094Y-140862200D01*
X74793094Y-140862200D02*
X74650237Y-140909819D01*
X74650237Y-140909819D02*
X74412142Y-140909819D01*
X75174047Y-141005057D02*
X75935951Y-141005057D01*
X76174047Y-140243152D02*
X76174047Y-141243152D01*
X76174047Y-140290771D02*
X76269285Y-140243152D01*
X76269285Y-140243152D02*
X76459761Y-140243152D01*
X76459761Y-140243152D02*
X76554999Y-140290771D01*
X76554999Y-140290771D02*
X76602618Y-140338390D01*
X76602618Y-140338390D02*
X76650237Y-140433628D01*
X76650237Y-140433628D02*
X76650237Y-140719342D01*
X76650237Y-140719342D02*
X76602618Y-140814580D01*
X76602618Y-140814580D02*
X76554999Y-140862200D01*
X76554999Y-140862200D02*
X76459761Y-140909819D01*
X76459761Y-140909819D02*
X76269285Y-140909819D01*
X76269285Y-140909819D02*
X76174047Y-140862200D01*
X77221666Y-140909819D02*
X77126428Y-140862200D01*
X77126428Y-140862200D02*
X77078809Y-140766961D01*
X77078809Y-140766961D02*
X77078809Y-139909819D01*
X78031190Y-140909819D02*
X78031190Y-140386009D01*
X78031190Y-140386009D02*
X77983571Y-140290771D01*
X77983571Y-140290771D02*
X77888333Y-140243152D01*
X77888333Y-140243152D02*
X77697857Y-140243152D01*
X77697857Y-140243152D02*
X77602619Y-140290771D01*
X78031190Y-140862200D02*
X77935952Y-140909819D01*
X77935952Y-140909819D02*
X77697857Y-140909819D01*
X77697857Y-140909819D02*
X77602619Y-140862200D01*
X77602619Y-140862200D02*
X77555000Y-140766961D01*
X77555000Y-140766961D02*
X77555000Y-140671723D01*
X77555000Y-140671723D02*
X77602619Y-140576485D01*
X77602619Y-140576485D02*
X77697857Y-140528866D01*
X77697857Y-140528866D02*
X77935952Y-140528866D01*
X77935952Y-140528866D02*
X78031190Y-140481247D01*
X78507381Y-140243152D02*
X78507381Y-140909819D01*
X78507381Y-140338390D02*
X78555000Y-140290771D01*
X78555000Y-140290771D02*
X78650238Y-140243152D01*
X78650238Y-140243152D02*
X78793095Y-140243152D01*
X78793095Y-140243152D02*
X78888333Y-140290771D01*
X78888333Y-140290771D02*
X78935952Y-140386009D01*
X78935952Y-140386009D02*
X78935952Y-140909819D01*
X79793095Y-140862200D02*
X79697857Y-140909819D01*
X79697857Y-140909819D02*
X79507381Y-140909819D01*
X79507381Y-140909819D02*
X79412143Y-140862200D01*
X79412143Y-140862200D02*
X79364524Y-140766961D01*
X79364524Y-140766961D02*
X79364524Y-140386009D01*
X79364524Y-140386009D02*
X79412143Y-140290771D01*
X79412143Y-140290771D02*
X79507381Y-140243152D01*
X79507381Y-140243152D02*
X79697857Y-140243152D01*
X79697857Y-140243152D02*
X79793095Y-140290771D01*
X79793095Y-140290771D02*
X79840714Y-140386009D01*
X79840714Y-140386009D02*
X79840714Y-140481247D01*
X79840714Y-140481247D02*
X79364524Y-140576485D01*
X80174048Y-139909819D02*
X80793095Y-139909819D01*
X80793095Y-139909819D02*
X80459762Y-140290771D01*
X80459762Y-140290771D02*
X80602619Y-140290771D01*
X80602619Y-140290771D02*
X80697857Y-140338390D01*
X80697857Y-140338390D02*
X80745476Y-140386009D01*
X80745476Y-140386009D02*
X80793095Y-140481247D01*
X80793095Y-140481247D02*
X80793095Y-140719342D01*
X80793095Y-140719342D02*
X80745476Y-140814580D01*
X80745476Y-140814580D02*
X80697857Y-140862200D01*
X80697857Y-140862200D02*
X80602619Y-140909819D01*
X80602619Y-140909819D02*
X80316905Y-140909819D01*
X80316905Y-140909819D02*
X80221667Y-140862200D01*
X80221667Y-140862200D02*
X80174048Y-140814580D01*
X75436666Y-52174820D02*
X75436666Y-52889105D01*
X75436666Y-52889105D02*
X75389047Y-53031962D01*
X75389047Y-53031962D02*
X75293809Y-53127201D01*
X75293809Y-53127201D02*
X75150952Y-53174820D01*
X75150952Y-53174820D02*
X75055714Y-53174820D01*
X75865238Y-52270058D02*
X75912857Y-52222439D01*
X75912857Y-52222439D02*
X76008095Y-52174820D01*
X76008095Y-52174820D02*
X76246190Y-52174820D01*
X76246190Y-52174820D02*
X76341428Y-52222439D01*
X76341428Y-52222439D02*
X76389047Y-52270058D01*
X76389047Y-52270058D02*
X76436666Y-52365296D01*
X76436666Y-52365296D02*
X76436666Y-52460534D01*
X76436666Y-52460534D02*
X76389047Y-52603391D01*
X76389047Y-52603391D02*
X75817619Y-53174820D01*
X75817619Y-53174820D02*
X76436666Y-53174820D01*
X83961666Y-52174820D02*
X83961666Y-52889105D01*
X83961666Y-52889105D02*
X83914047Y-53031962D01*
X83914047Y-53031962D02*
X83818809Y-53127201D01*
X83818809Y-53127201D02*
X83675952Y-53174820D01*
X83675952Y-53174820D02*
X83580714Y-53174820D01*
X84961666Y-53174820D02*
X84390238Y-53174820D01*
X84675952Y-53174820D02*
X84675952Y-52174820D01*
X84675952Y-52174820D02*
X84580714Y-52317677D01*
X84580714Y-52317677D02*
X84485476Y-52412915D01*
X84485476Y-52412915D02*
X84390238Y-52460534D01*
X115503332Y-139957438D02*
X115408094Y-139909819D01*
X115408094Y-139909819D02*
X115265237Y-139909819D01*
X115265237Y-139909819D02*
X115122380Y-139957438D01*
X115122380Y-139957438D02*
X115027142Y-140052676D01*
X115027142Y-140052676D02*
X114979523Y-140147914D01*
X114979523Y-140147914D02*
X114931904Y-140338390D01*
X114931904Y-140338390D02*
X114931904Y-140481247D01*
X114931904Y-140481247D02*
X114979523Y-140671723D01*
X114979523Y-140671723D02*
X115027142Y-140766961D01*
X115027142Y-140766961D02*
X115122380Y-140862200D01*
X115122380Y-140862200D02*
X115265237Y-140909819D01*
X115265237Y-140909819D02*
X115360475Y-140909819D01*
X115360475Y-140909819D02*
X115503332Y-140862200D01*
X115503332Y-140862200D02*
X115550951Y-140814580D01*
X115550951Y-140814580D02*
X115550951Y-140481247D01*
X115550951Y-140481247D02*
X115360475Y-140481247D01*
X115979523Y-140909819D02*
X115979523Y-139909819D01*
X115979523Y-139909819D02*
X116550951Y-140909819D01*
X116550951Y-140909819D02*
X116550951Y-139909819D01*
X117027142Y-140909819D02*
X117027142Y-139909819D01*
X117027142Y-139909819D02*
X117265237Y-139909819D01*
X117265237Y-139909819D02*
X117408094Y-139957438D01*
X117408094Y-139957438D02*
X117503332Y-140052676D01*
X117503332Y-140052676D02*
X117550951Y-140147914D01*
X117550951Y-140147914D02*
X117598570Y-140338390D01*
X117598570Y-140338390D02*
X117598570Y-140481247D01*
X117598570Y-140481247D02*
X117550951Y-140671723D01*
X117550951Y-140671723D02*
X117503332Y-140766961D01*
X117503332Y-140766961D02*
X117408094Y-140862200D01*
X117408094Y-140862200D02*
X117265237Y-140909819D01*
X117265237Y-140909819D02*
X117027142Y-140909819D01*
X117789047Y-141005057D02*
X118550951Y-141005057D01*
X118789047Y-140243152D02*
X118789047Y-141243152D01*
X118789047Y-140290771D02*
X118884285Y-140243152D01*
X118884285Y-140243152D02*
X119074761Y-140243152D01*
X119074761Y-140243152D02*
X119169999Y-140290771D01*
X119169999Y-140290771D02*
X119217618Y-140338390D01*
X119217618Y-140338390D02*
X119265237Y-140433628D01*
X119265237Y-140433628D02*
X119265237Y-140719342D01*
X119265237Y-140719342D02*
X119217618Y-140814580D01*
X119217618Y-140814580D02*
X119169999Y-140862200D01*
X119169999Y-140862200D02*
X119074761Y-140909819D01*
X119074761Y-140909819D02*
X118884285Y-140909819D01*
X118884285Y-140909819D02*
X118789047Y-140862200D01*
X119836666Y-140909819D02*
X119741428Y-140862200D01*
X119741428Y-140862200D02*
X119693809Y-140766961D01*
X119693809Y-140766961D02*
X119693809Y-139909819D01*
X120646190Y-140909819D02*
X120646190Y-140386009D01*
X120646190Y-140386009D02*
X120598571Y-140290771D01*
X120598571Y-140290771D02*
X120503333Y-140243152D01*
X120503333Y-140243152D02*
X120312857Y-140243152D01*
X120312857Y-140243152D02*
X120217619Y-140290771D01*
X120646190Y-140862200D02*
X120550952Y-140909819D01*
X120550952Y-140909819D02*
X120312857Y-140909819D01*
X120312857Y-140909819D02*
X120217619Y-140862200D01*
X120217619Y-140862200D02*
X120170000Y-140766961D01*
X120170000Y-140766961D02*
X120170000Y-140671723D01*
X120170000Y-140671723D02*
X120217619Y-140576485D01*
X120217619Y-140576485D02*
X120312857Y-140528866D01*
X120312857Y-140528866D02*
X120550952Y-140528866D01*
X120550952Y-140528866D02*
X120646190Y-140481247D01*
X121122381Y-140243152D02*
X121122381Y-140909819D01*
X121122381Y-140338390D02*
X121170000Y-140290771D01*
X121170000Y-140290771D02*
X121265238Y-140243152D01*
X121265238Y-140243152D02*
X121408095Y-140243152D01*
X121408095Y-140243152D02*
X121503333Y-140290771D01*
X121503333Y-140290771D02*
X121550952Y-140386009D01*
X121550952Y-140386009D02*
X121550952Y-140909819D01*
X122408095Y-140862200D02*
X122312857Y-140909819D01*
X122312857Y-140909819D02*
X122122381Y-140909819D01*
X122122381Y-140909819D02*
X122027143Y-140862200D01*
X122027143Y-140862200D02*
X121979524Y-140766961D01*
X121979524Y-140766961D02*
X121979524Y-140386009D01*
X121979524Y-140386009D02*
X122027143Y-140290771D01*
X122027143Y-140290771D02*
X122122381Y-140243152D01*
X122122381Y-140243152D02*
X122312857Y-140243152D01*
X122312857Y-140243152D02*
X122408095Y-140290771D01*
X122408095Y-140290771D02*
X122455714Y-140386009D01*
X122455714Y-140386009D02*
X122455714Y-140481247D01*
X122455714Y-140481247D02*
X121979524Y-140576485D01*
X123027143Y-140338390D02*
X122931905Y-140290771D01*
X122931905Y-140290771D02*
X122884286Y-140243152D01*
X122884286Y-140243152D02*
X122836667Y-140147914D01*
X122836667Y-140147914D02*
X122836667Y-140100295D01*
X122836667Y-140100295D02*
X122884286Y-140005057D01*
X122884286Y-140005057D02*
X122931905Y-139957438D01*
X122931905Y-139957438D02*
X123027143Y-139909819D01*
X123027143Y-139909819D02*
X123217619Y-139909819D01*
X123217619Y-139909819D02*
X123312857Y-139957438D01*
X123312857Y-139957438D02*
X123360476Y-140005057D01*
X123360476Y-140005057D02*
X123408095Y-140100295D01*
X123408095Y-140100295D02*
X123408095Y-140147914D01*
X123408095Y-140147914D02*
X123360476Y-140243152D01*
X123360476Y-140243152D02*
X123312857Y-140290771D01*
X123312857Y-140290771D02*
X123217619Y-140338390D01*
X123217619Y-140338390D02*
X123027143Y-140338390D01*
X123027143Y-140338390D02*
X122931905Y-140386009D01*
X122931905Y-140386009D02*
X122884286Y-140433628D01*
X122884286Y-140433628D02*
X122836667Y-140528866D01*
X122836667Y-140528866D02*
X122836667Y-140719342D01*
X122836667Y-140719342D02*
X122884286Y-140814580D01*
X122884286Y-140814580D02*
X122931905Y-140862200D01*
X122931905Y-140862200D02*
X123027143Y-140909819D01*
X123027143Y-140909819D02*
X123217619Y-140909819D01*
X123217619Y-140909819D02*
X123312857Y-140862200D01*
X123312857Y-140862200D02*
X123360476Y-140814580D01*
X123360476Y-140814580D02*
X123408095Y-140719342D01*
X123408095Y-140719342D02*
X123408095Y-140528866D01*
X123408095Y-140528866D02*
X123360476Y-140433628D01*
X123360476Y-140433628D02*
X123312857Y-140386009D01*
X123312857Y-140386009D02*
X123217619Y-140338390D01*
X140759819Y-122878334D02*
X141474104Y-122878334D01*
X141474104Y-122878334D02*
X141616961Y-122925953D01*
X141616961Y-122925953D02*
X141712200Y-123021191D01*
X141712200Y-123021191D02*
X141759819Y-123164048D01*
X141759819Y-123164048D02*
X141759819Y-123259286D01*
X141188390Y-122259286D02*
X141140771Y-122354524D01*
X141140771Y-122354524D02*
X141093152Y-122402143D01*
X141093152Y-122402143D02*
X140997914Y-122449762D01*
X140997914Y-122449762D02*
X140950295Y-122449762D01*
X140950295Y-122449762D02*
X140855057Y-122402143D01*
X140855057Y-122402143D02*
X140807438Y-122354524D01*
X140807438Y-122354524D02*
X140759819Y-122259286D01*
X140759819Y-122259286D02*
X140759819Y-122068810D01*
X140759819Y-122068810D02*
X140807438Y-121973572D01*
X140807438Y-121973572D02*
X140855057Y-121925953D01*
X140855057Y-121925953D02*
X140950295Y-121878334D01*
X140950295Y-121878334D02*
X140997914Y-121878334D01*
X140997914Y-121878334D02*
X141093152Y-121925953D01*
X141093152Y-121925953D02*
X141140771Y-121973572D01*
X141140771Y-121973572D02*
X141188390Y-122068810D01*
X141188390Y-122068810D02*
X141188390Y-122259286D01*
X141188390Y-122259286D02*
X141236009Y-122354524D01*
X141236009Y-122354524D02*
X141283628Y-122402143D01*
X141283628Y-122402143D02*
X141378866Y-122449762D01*
X141378866Y-122449762D02*
X141569342Y-122449762D01*
X141569342Y-122449762D02*
X141664580Y-122402143D01*
X141664580Y-122402143D02*
X141712200Y-122354524D01*
X141712200Y-122354524D02*
X141759819Y-122259286D01*
X141759819Y-122259286D02*
X141759819Y-122068810D01*
X141759819Y-122068810D02*
X141712200Y-121973572D01*
X141712200Y-121973572D02*
X141664580Y-121925953D01*
X141664580Y-121925953D02*
X141569342Y-121878334D01*
X141569342Y-121878334D02*
X141378866Y-121878334D01*
X141378866Y-121878334D02*
X141283628Y-121925953D01*
X141283628Y-121925953D02*
X141236009Y-121973572D01*
X141236009Y-121973572D02*
X141188390Y-122068810D01*
X140759819Y-88778334D02*
X141474104Y-88778334D01*
X141474104Y-88778334D02*
X141616961Y-88825953D01*
X141616961Y-88825953D02*
X141712200Y-88921191D01*
X141712200Y-88921191D02*
X141759819Y-89064048D01*
X141759819Y-89064048D02*
X141759819Y-89159286D01*
X141093152Y-87873572D02*
X141759819Y-87873572D01*
X140712200Y-88111667D02*
X141426485Y-88349762D01*
X141426485Y-88349762D02*
X141426485Y-87730715D01*
X140759819Y-114353334D02*
X141474104Y-114353334D01*
X141474104Y-114353334D02*
X141616961Y-114400953D01*
X141616961Y-114400953D02*
X141712200Y-114496191D01*
X141712200Y-114496191D02*
X141759819Y-114639048D01*
X141759819Y-114639048D02*
X141759819Y-114734286D01*
X140759819Y-113972381D02*
X140759819Y-113305715D01*
X140759819Y-113305715D02*
X141759819Y-113734286D01*
X140759819Y-80253335D02*
X141474104Y-80253335D01*
X141474104Y-80253335D02*
X141616961Y-80300954D01*
X141616961Y-80300954D02*
X141712200Y-80396192D01*
X141712200Y-80396192D02*
X141759819Y-80539049D01*
X141759819Y-80539049D02*
X141759819Y-80634287D01*
X140759819Y-79872382D02*
X140759819Y-79253335D01*
X140759819Y-79253335D02*
X141140771Y-79586668D01*
X141140771Y-79586668D02*
X141140771Y-79443811D01*
X141140771Y-79443811D02*
X141188390Y-79348573D01*
X141188390Y-79348573D02*
X141236009Y-79300954D01*
X141236009Y-79300954D02*
X141331247Y-79253335D01*
X141331247Y-79253335D02*
X141569342Y-79253335D01*
X141569342Y-79253335D02*
X141664580Y-79300954D01*
X141664580Y-79300954D02*
X141712200Y-79348573D01*
X141712200Y-79348573D02*
X141759819Y-79443811D01*
X141759819Y-79443811D02*
X141759819Y-79729525D01*
X141759819Y-79729525D02*
X141712200Y-79824763D01*
X141712200Y-79824763D02*
X141664580Y-79872382D01*
X53099819Y-114864523D02*
X53814104Y-114864523D01*
X53814104Y-114864523D02*
X53956961Y-114912142D01*
X53956961Y-114912142D02*
X54052200Y-115007380D01*
X54052200Y-115007380D02*
X54099819Y-115150237D01*
X54099819Y-115150237D02*
X54099819Y-115245475D01*
X54099819Y-113864523D02*
X54099819Y-114435951D01*
X54099819Y-114150237D02*
X53099819Y-114150237D01*
X53099819Y-114150237D02*
X53242676Y-114245475D01*
X53242676Y-114245475D02*
X53337914Y-114340713D01*
X53337914Y-114340713D02*
X53385533Y-114435951D01*
X53099819Y-113245475D02*
X53099819Y-113150237D01*
X53099819Y-113150237D02*
X53147438Y-113054999D01*
X53147438Y-113054999D02*
X53195057Y-113007380D01*
X53195057Y-113007380D02*
X53290295Y-112959761D01*
X53290295Y-112959761D02*
X53480771Y-112912142D01*
X53480771Y-112912142D02*
X53718866Y-112912142D01*
X53718866Y-112912142D02*
X53909342Y-112959761D01*
X53909342Y-112959761D02*
X54004580Y-113007380D01*
X54004580Y-113007380D02*
X54052200Y-113054999D01*
X54052200Y-113054999D02*
X54099819Y-113150237D01*
X54099819Y-113150237D02*
X54099819Y-113245475D01*
X54099819Y-113245475D02*
X54052200Y-113340713D01*
X54052200Y-113340713D02*
X54004580Y-113388332D01*
X54004580Y-113388332D02*
X53909342Y-113435951D01*
X53909342Y-113435951D02*
X53718866Y-113483570D01*
X53718866Y-113483570D02*
X53480771Y-113483570D01*
X53480771Y-113483570D02*
X53290295Y-113435951D01*
X53290295Y-113435951D02*
X53195057Y-113388332D01*
X53195057Y-113388332D02*
X53147438Y-113340713D01*
X53147438Y-113340713D02*
X53099819Y-113245475D01*
X81413332Y-139957438D02*
X81318094Y-139909819D01*
X81318094Y-139909819D02*
X81175237Y-139909819D01*
X81175237Y-139909819D02*
X81032380Y-139957438D01*
X81032380Y-139957438D02*
X80937142Y-140052676D01*
X80937142Y-140052676D02*
X80889523Y-140147914D01*
X80889523Y-140147914D02*
X80841904Y-140338390D01*
X80841904Y-140338390D02*
X80841904Y-140481247D01*
X80841904Y-140481247D02*
X80889523Y-140671723D01*
X80889523Y-140671723D02*
X80937142Y-140766961D01*
X80937142Y-140766961D02*
X81032380Y-140862200D01*
X81032380Y-140862200D02*
X81175237Y-140909819D01*
X81175237Y-140909819D02*
X81270475Y-140909819D01*
X81270475Y-140909819D02*
X81413332Y-140862200D01*
X81413332Y-140862200D02*
X81460951Y-140814580D01*
X81460951Y-140814580D02*
X81460951Y-140481247D01*
X81460951Y-140481247D02*
X81270475Y-140481247D01*
X81889523Y-140909819D02*
X81889523Y-139909819D01*
X81889523Y-139909819D02*
X82460951Y-140909819D01*
X82460951Y-140909819D02*
X82460951Y-139909819D01*
X82937142Y-140909819D02*
X82937142Y-139909819D01*
X82937142Y-139909819D02*
X83175237Y-139909819D01*
X83175237Y-139909819D02*
X83318094Y-139957438D01*
X83318094Y-139957438D02*
X83413332Y-140052676D01*
X83413332Y-140052676D02*
X83460951Y-140147914D01*
X83460951Y-140147914D02*
X83508570Y-140338390D01*
X83508570Y-140338390D02*
X83508570Y-140481247D01*
X83508570Y-140481247D02*
X83460951Y-140671723D01*
X83460951Y-140671723D02*
X83413332Y-140766961D01*
X83413332Y-140766961D02*
X83318094Y-140862200D01*
X83318094Y-140862200D02*
X83175237Y-140909819D01*
X83175237Y-140909819D02*
X82937142Y-140909819D01*
X83699047Y-141005057D02*
X84460951Y-141005057D01*
X84699047Y-140243152D02*
X84699047Y-141243152D01*
X84699047Y-140290771D02*
X84794285Y-140243152D01*
X84794285Y-140243152D02*
X84984761Y-140243152D01*
X84984761Y-140243152D02*
X85079999Y-140290771D01*
X85079999Y-140290771D02*
X85127618Y-140338390D01*
X85127618Y-140338390D02*
X85175237Y-140433628D01*
X85175237Y-140433628D02*
X85175237Y-140719342D01*
X85175237Y-140719342D02*
X85127618Y-140814580D01*
X85127618Y-140814580D02*
X85079999Y-140862200D01*
X85079999Y-140862200D02*
X84984761Y-140909819D01*
X84984761Y-140909819D02*
X84794285Y-140909819D01*
X84794285Y-140909819D02*
X84699047Y-140862200D01*
X85746666Y-140909819D02*
X85651428Y-140862200D01*
X85651428Y-140862200D02*
X85603809Y-140766961D01*
X85603809Y-140766961D02*
X85603809Y-139909819D01*
X86556190Y-140909819D02*
X86556190Y-140386009D01*
X86556190Y-140386009D02*
X86508571Y-140290771D01*
X86508571Y-140290771D02*
X86413333Y-140243152D01*
X86413333Y-140243152D02*
X86222857Y-140243152D01*
X86222857Y-140243152D02*
X86127619Y-140290771D01*
X86556190Y-140862200D02*
X86460952Y-140909819D01*
X86460952Y-140909819D02*
X86222857Y-140909819D01*
X86222857Y-140909819D02*
X86127619Y-140862200D01*
X86127619Y-140862200D02*
X86080000Y-140766961D01*
X86080000Y-140766961D02*
X86080000Y-140671723D01*
X86080000Y-140671723D02*
X86127619Y-140576485D01*
X86127619Y-140576485D02*
X86222857Y-140528866D01*
X86222857Y-140528866D02*
X86460952Y-140528866D01*
X86460952Y-140528866D02*
X86556190Y-140481247D01*
X87032381Y-140243152D02*
X87032381Y-140909819D01*
X87032381Y-140338390D02*
X87080000Y-140290771D01*
X87080000Y-140290771D02*
X87175238Y-140243152D01*
X87175238Y-140243152D02*
X87318095Y-140243152D01*
X87318095Y-140243152D02*
X87413333Y-140290771D01*
X87413333Y-140290771D02*
X87460952Y-140386009D01*
X87460952Y-140386009D02*
X87460952Y-140909819D01*
X88318095Y-140862200D02*
X88222857Y-140909819D01*
X88222857Y-140909819D02*
X88032381Y-140909819D01*
X88032381Y-140909819D02*
X87937143Y-140862200D01*
X87937143Y-140862200D02*
X87889524Y-140766961D01*
X87889524Y-140766961D02*
X87889524Y-140386009D01*
X87889524Y-140386009D02*
X87937143Y-140290771D01*
X87937143Y-140290771D02*
X88032381Y-140243152D01*
X88032381Y-140243152D02*
X88222857Y-140243152D01*
X88222857Y-140243152D02*
X88318095Y-140290771D01*
X88318095Y-140290771D02*
X88365714Y-140386009D01*
X88365714Y-140386009D02*
X88365714Y-140481247D01*
X88365714Y-140481247D02*
X87889524Y-140576485D01*
X89222857Y-140243152D02*
X89222857Y-140909819D01*
X88984762Y-139862200D02*
X88746667Y-140576485D01*
X88746667Y-140576485D02*
X89365714Y-140576485D01*
X53099819Y-122913333D02*
X53814104Y-122913333D01*
X53814104Y-122913333D02*
X53956961Y-122960952D01*
X53956961Y-122960952D02*
X54052200Y-123056190D01*
X54052200Y-123056190D02*
X54099819Y-123199047D01*
X54099819Y-123199047D02*
X54099819Y-123294285D01*
X54099819Y-122389523D02*
X54099819Y-122199047D01*
X54099819Y-122199047D02*
X54052200Y-122103809D01*
X54052200Y-122103809D02*
X54004580Y-122056190D01*
X54004580Y-122056190D02*
X53861723Y-121960952D01*
X53861723Y-121960952D02*
X53671247Y-121913333D01*
X53671247Y-121913333D02*
X53290295Y-121913333D01*
X53290295Y-121913333D02*
X53195057Y-121960952D01*
X53195057Y-121960952D02*
X53147438Y-122008571D01*
X53147438Y-122008571D02*
X53099819Y-122103809D01*
X53099819Y-122103809D02*
X53099819Y-122294285D01*
X53099819Y-122294285D02*
X53147438Y-122389523D01*
X53147438Y-122389523D02*
X53195057Y-122437142D01*
X53195057Y-122437142D02*
X53290295Y-122484761D01*
X53290295Y-122484761D02*
X53528390Y-122484761D01*
X53528390Y-122484761D02*
X53623628Y-122437142D01*
X53623628Y-122437142D02*
X53671247Y-122389523D01*
X53671247Y-122389523D02*
X53718866Y-122294285D01*
X53718866Y-122294285D02*
X53718866Y-122103809D01*
X53718866Y-122103809D02*
X53671247Y-122008571D01*
X53671247Y-122008571D02*
X53623628Y-121960952D01*
X53623628Y-121960952D02*
X53528390Y-121913333D01*
X89162319Y-60209523D02*
X89876604Y-60209523D01*
X89876604Y-60209523D02*
X90019461Y-60257142D01*
X90019461Y-60257142D02*
X90114700Y-60352380D01*
X90114700Y-60352380D02*
X90162319Y-60495237D01*
X90162319Y-60495237D02*
X90162319Y-60590475D01*
X90162319Y-59209523D02*
X90162319Y-59780951D01*
X90162319Y-59495237D02*
X89162319Y-59495237D01*
X89162319Y-59495237D02*
X89305176Y-59590475D01*
X89305176Y-59590475D02*
X89400414Y-59685713D01*
X89400414Y-59685713D02*
X89448033Y-59780951D01*
X89162319Y-58304761D02*
X89162319Y-58780951D01*
X89162319Y-58780951D02*
X89638509Y-58828570D01*
X89638509Y-58828570D02*
X89590890Y-58780951D01*
X89590890Y-58780951D02*
X89543271Y-58685713D01*
X89543271Y-58685713D02*
X89543271Y-58447618D01*
X89543271Y-58447618D02*
X89590890Y-58352380D01*
X89590890Y-58352380D02*
X89638509Y-58304761D01*
X89638509Y-58304761D02*
X89733747Y-58257142D01*
X89733747Y-58257142D02*
X89971842Y-58257142D01*
X89971842Y-58257142D02*
X90067080Y-58304761D01*
X90067080Y-58304761D02*
X90114700Y-58352380D01*
X90114700Y-58352380D02*
X90162319Y-58447618D01*
X90162319Y-58447618D02*
X90162319Y-58685713D01*
X90162319Y-58685713D02*
X90114700Y-58780951D01*
X90114700Y-58780951D02*
X90067080Y-58828570D01*
X140807438Y-75061668D02*
X140759819Y-75156906D01*
X140759819Y-75156906D02*
X140759819Y-75299763D01*
X140759819Y-75299763D02*
X140807438Y-75442620D01*
X140807438Y-75442620D02*
X140902676Y-75537858D01*
X140902676Y-75537858D02*
X140997914Y-75585477D01*
X140997914Y-75585477D02*
X141188390Y-75633096D01*
X141188390Y-75633096D02*
X141331247Y-75633096D01*
X141331247Y-75633096D02*
X141521723Y-75585477D01*
X141521723Y-75585477D02*
X141616961Y-75537858D01*
X141616961Y-75537858D02*
X141712200Y-75442620D01*
X141712200Y-75442620D02*
X141759819Y-75299763D01*
X141759819Y-75299763D02*
X141759819Y-75204525D01*
X141759819Y-75204525D02*
X141712200Y-75061668D01*
X141712200Y-75061668D02*
X141664580Y-75014049D01*
X141664580Y-75014049D02*
X141331247Y-75014049D01*
X141331247Y-75014049D02*
X141331247Y-75204525D01*
X141759819Y-74585477D02*
X140759819Y-74585477D01*
X140759819Y-74585477D02*
X141759819Y-74014049D01*
X141759819Y-74014049D02*
X140759819Y-74014049D01*
X141759819Y-73537858D02*
X140759819Y-73537858D01*
X140759819Y-73537858D02*
X140759819Y-73299763D01*
X140759819Y-73299763D02*
X140807438Y-73156906D01*
X140807438Y-73156906D02*
X140902676Y-73061668D01*
X140902676Y-73061668D02*
X140997914Y-73014049D01*
X140997914Y-73014049D02*
X141188390Y-72966430D01*
X141188390Y-72966430D02*
X141331247Y-72966430D01*
X141331247Y-72966430D02*
X141521723Y-73014049D01*
X141521723Y-73014049D02*
X141616961Y-73061668D01*
X141616961Y-73061668D02*
X141712200Y-73156906D01*
X141712200Y-73156906D02*
X141759819Y-73299763D01*
X141759819Y-73299763D02*
X141759819Y-73537858D01*
X141855057Y-72775954D02*
X141855057Y-72014049D01*
X141093152Y-71775953D02*
X142093152Y-71775953D01*
X141140771Y-71775953D02*
X141093152Y-71680715D01*
X141093152Y-71680715D02*
X141093152Y-71490239D01*
X141093152Y-71490239D02*
X141140771Y-71395001D01*
X141140771Y-71395001D02*
X141188390Y-71347382D01*
X141188390Y-71347382D02*
X141283628Y-71299763D01*
X141283628Y-71299763D02*
X141569342Y-71299763D01*
X141569342Y-71299763D02*
X141664580Y-71347382D01*
X141664580Y-71347382D02*
X141712200Y-71395001D01*
X141712200Y-71395001D02*
X141759819Y-71490239D01*
X141759819Y-71490239D02*
X141759819Y-71680715D01*
X141759819Y-71680715D02*
X141712200Y-71775953D01*
X141759819Y-70728334D02*
X141712200Y-70823572D01*
X141712200Y-70823572D02*
X141616961Y-70871191D01*
X141616961Y-70871191D02*
X140759819Y-70871191D01*
X141759819Y-69918810D02*
X141236009Y-69918810D01*
X141236009Y-69918810D02*
X141140771Y-69966429D01*
X141140771Y-69966429D02*
X141093152Y-70061667D01*
X141093152Y-70061667D02*
X141093152Y-70252143D01*
X141093152Y-70252143D02*
X141140771Y-70347381D01*
X141712200Y-69918810D02*
X141759819Y-70014048D01*
X141759819Y-70014048D02*
X141759819Y-70252143D01*
X141759819Y-70252143D02*
X141712200Y-70347381D01*
X141712200Y-70347381D02*
X141616961Y-70395000D01*
X141616961Y-70395000D02*
X141521723Y-70395000D01*
X141521723Y-70395000D02*
X141426485Y-70347381D01*
X141426485Y-70347381D02*
X141378866Y-70252143D01*
X141378866Y-70252143D02*
X141378866Y-70014048D01*
X141378866Y-70014048D02*
X141331247Y-69918810D01*
X141093152Y-69442619D02*
X141759819Y-69442619D01*
X141188390Y-69442619D02*
X141140771Y-69395000D01*
X141140771Y-69395000D02*
X141093152Y-69299762D01*
X141093152Y-69299762D02*
X141093152Y-69156905D01*
X141093152Y-69156905D02*
X141140771Y-69061667D01*
X141140771Y-69061667D02*
X141236009Y-69014048D01*
X141236009Y-69014048D02*
X141759819Y-69014048D01*
X141712200Y-68156905D02*
X141759819Y-68252143D01*
X141759819Y-68252143D02*
X141759819Y-68442619D01*
X141759819Y-68442619D02*
X141712200Y-68537857D01*
X141712200Y-68537857D02*
X141616961Y-68585476D01*
X141616961Y-68585476D02*
X141236009Y-68585476D01*
X141236009Y-68585476D02*
X141140771Y-68537857D01*
X141140771Y-68537857D02*
X141093152Y-68442619D01*
X141093152Y-68442619D02*
X141093152Y-68252143D01*
X141093152Y-68252143D02*
X141140771Y-68156905D01*
X141140771Y-68156905D02*
X141236009Y-68109286D01*
X141236009Y-68109286D02*
X141331247Y-68109286D01*
X141331247Y-68109286D02*
X141426485Y-68585476D01*
X141759819Y-67156905D02*
X141759819Y-67728333D01*
X141759819Y-67442619D02*
X140759819Y-67442619D01*
X140759819Y-67442619D02*
X140902676Y-67537857D01*
X140902676Y-67537857D02*
X140997914Y-67633095D01*
X140997914Y-67633095D02*
X141045533Y-67728333D01*
X106978332Y-139957438D02*
X106883094Y-139909819D01*
X106883094Y-139909819D02*
X106740237Y-139909819D01*
X106740237Y-139909819D02*
X106597380Y-139957438D01*
X106597380Y-139957438D02*
X106502142Y-140052676D01*
X106502142Y-140052676D02*
X106454523Y-140147914D01*
X106454523Y-140147914D02*
X106406904Y-140338390D01*
X106406904Y-140338390D02*
X106406904Y-140481247D01*
X106406904Y-140481247D02*
X106454523Y-140671723D01*
X106454523Y-140671723D02*
X106502142Y-140766961D01*
X106502142Y-140766961D02*
X106597380Y-140862200D01*
X106597380Y-140862200D02*
X106740237Y-140909819D01*
X106740237Y-140909819D02*
X106835475Y-140909819D01*
X106835475Y-140909819D02*
X106978332Y-140862200D01*
X106978332Y-140862200D02*
X107025951Y-140814580D01*
X107025951Y-140814580D02*
X107025951Y-140481247D01*
X107025951Y-140481247D02*
X106835475Y-140481247D01*
X107454523Y-140909819D02*
X107454523Y-139909819D01*
X107454523Y-139909819D02*
X108025951Y-140909819D01*
X108025951Y-140909819D02*
X108025951Y-139909819D01*
X108502142Y-140909819D02*
X108502142Y-139909819D01*
X108502142Y-139909819D02*
X108740237Y-139909819D01*
X108740237Y-139909819D02*
X108883094Y-139957438D01*
X108883094Y-139957438D02*
X108978332Y-140052676D01*
X108978332Y-140052676D02*
X109025951Y-140147914D01*
X109025951Y-140147914D02*
X109073570Y-140338390D01*
X109073570Y-140338390D02*
X109073570Y-140481247D01*
X109073570Y-140481247D02*
X109025951Y-140671723D01*
X109025951Y-140671723D02*
X108978332Y-140766961D01*
X108978332Y-140766961D02*
X108883094Y-140862200D01*
X108883094Y-140862200D02*
X108740237Y-140909819D01*
X108740237Y-140909819D02*
X108502142Y-140909819D01*
X109264047Y-141005057D02*
X110025951Y-141005057D01*
X110264047Y-140243152D02*
X110264047Y-141243152D01*
X110264047Y-140290771D02*
X110359285Y-140243152D01*
X110359285Y-140243152D02*
X110549761Y-140243152D01*
X110549761Y-140243152D02*
X110644999Y-140290771D01*
X110644999Y-140290771D02*
X110692618Y-140338390D01*
X110692618Y-140338390D02*
X110740237Y-140433628D01*
X110740237Y-140433628D02*
X110740237Y-140719342D01*
X110740237Y-140719342D02*
X110692618Y-140814580D01*
X110692618Y-140814580D02*
X110644999Y-140862200D01*
X110644999Y-140862200D02*
X110549761Y-140909819D01*
X110549761Y-140909819D02*
X110359285Y-140909819D01*
X110359285Y-140909819D02*
X110264047Y-140862200D01*
X111311666Y-140909819D02*
X111216428Y-140862200D01*
X111216428Y-140862200D02*
X111168809Y-140766961D01*
X111168809Y-140766961D02*
X111168809Y-139909819D01*
X112121190Y-140909819D02*
X112121190Y-140386009D01*
X112121190Y-140386009D02*
X112073571Y-140290771D01*
X112073571Y-140290771D02*
X111978333Y-140243152D01*
X111978333Y-140243152D02*
X111787857Y-140243152D01*
X111787857Y-140243152D02*
X111692619Y-140290771D01*
X112121190Y-140862200D02*
X112025952Y-140909819D01*
X112025952Y-140909819D02*
X111787857Y-140909819D01*
X111787857Y-140909819D02*
X111692619Y-140862200D01*
X111692619Y-140862200D02*
X111645000Y-140766961D01*
X111645000Y-140766961D02*
X111645000Y-140671723D01*
X111645000Y-140671723D02*
X111692619Y-140576485D01*
X111692619Y-140576485D02*
X111787857Y-140528866D01*
X111787857Y-140528866D02*
X112025952Y-140528866D01*
X112025952Y-140528866D02*
X112121190Y-140481247D01*
X112597381Y-140243152D02*
X112597381Y-140909819D01*
X112597381Y-140338390D02*
X112645000Y-140290771D01*
X112645000Y-140290771D02*
X112740238Y-140243152D01*
X112740238Y-140243152D02*
X112883095Y-140243152D01*
X112883095Y-140243152D02*
X112978333Y-140290771D01*
X112978333Y-140290771D02*
X113025952Y-140386009D01*
X113025952Y-140386009D02*
X113025952Y-140909819D01*
X113883095Y-140862200D02*
X113787857Y-140909819D01*
X113787857Y-140909819D02*
X113597381Y-140909819D01*
X113597381Y-140909819D02*
X113502143Y-140862200D01*
X113502143Y-140862200D02*
X113454524Y-140766961D01*
X113454524Y-140766961D02*
X113454524Y-140386009D01*
X113454524Y-140386009D02*
X113502143Y-140290771D01*
X113502143Y-140290771D02*
X113597381Y-140243152D01*
X113597381Y-140243152D02*
X113787857Y-140243152D01*
X113787857Y-140243152D02*
X113883095Y-140290771D01*
X113883095Y-140290771D02*
X113930714Y-140386009D01*
X113930714Y-140386009D02*
X113930714Y-140481247D01*
X113930714Y-140481247D02*
X113454524Y-140576485D01*
X114264048Y-139909819D02*
X114930714Y-139909819D01*
X114930714Y-139909819D02*
X114502143Y-140909819D01*
M02*
