M48
; DRILL file {KiCad 8.0.4} date 2025-01-14T19:01:53-0600
; FORMAT={-:-/ absolute / inch / decimal}
; #@! TF.CreationDate,2025-01-14T19:01:53-06:00
; #@! TF.GenerationSoftware,Kicad,Pcbnew,8.0.4
; #@! TF.FileFunction,Plated,1,2,PTH
FMAT,2
INCH
; #@! TA.AperFunction,Plated,PTH,ViaDrill
T1C0.0118
; #@! TA.AperFunction,Plated,PTH,ComponentDrill
T2C0.0394
; #@! TA.AperFunction,Plated,PTH,ComponentDrill
T3C0.0433
; #@! TA.AperFunction,Plated,PTH,ComponentDrill
T4C0.0472
; #@! TA.AperFunction,Plated,PTH,ComponentDrill
T5C0.1260
%
G90
G05
T1
X6.1917Y-3.7732
X6.7811Y-4.9035
X6.8736Y-3.8272
X7.0071Y-3.5087
X7.1Y-4.3465
X7.1087Y-2.7283
X7.293Y-3.547
X7.3211Y-4.1797
X7.6312Y-4.2432
X7.6878Y-3.6
X7.7248Y-4.85
X7.8547Y-3.0902
X8.1362Y-3.9059
X8.2394Y-3.6877
X8.2451Y-2.7478
X8.2472Y-5.3909
X8.4155Y-4.21
X8.4417Y-3.5925
X8.7695Y-5.1274
X8.9004Y-4.6732
X9.013Y-3.5189
X9.2362Y-4.0417
X9.3022Y-4.9085
X10.1413Y-4.0728
X10.6201Y-4.387
X10.6453Y-3.0181
X10.6681Y-3.6028
X10.8209Y-3.9343
X10.835Y-3.6906
X10.9031Y-4.6138
X11.528Y-3.8228
X11.5748Y-3.0783
X11.5791Y-4.3594
X11.5917Y-3.2421
X11.5917Y-4.5496
X11.9209Y-4.1016
X11.9768Y-3.7083
X12.1507Y-4.2149
X12.1629Y-3.4179
X12.2406Y-4.5898
X12.313Y-2.8472
X12.6646Y-4.1256
T2
X2.7799Y-3.0872
X2.7799Y-3.5872
X2.7799Y-3.7872
X2.7799Y-3.9872
X2.7799Y-4.2872
X2.7799Y-3.8872
X2.7799Y-4.4872
X2.7799Y-3.2872
X2.7799Y-3.4872
X2.7799Y-4.3872
X2.7799Y-4.1872
X2.7799Y-3.6872
X2.7799Y-4.0872
X2.7799Y-3.3872
X2.7799Y-3.1872
X2.8799Y-3.7872
X2.8799Y-3.8872
X2.8799Y-3.0872
X2.8799Y-4.2872
X2.8799Y-3.2872
X2.8799Y-3.3872
X2.8799Y-3.4872
X2.8799Y-3.6872
X2.8799Y-3.9872
X2.8799Y-4.0872
X2.8799Y-4.3872
X2.8799Y-4.4872
X2.8799Y-3.1872
X2.8799Y-3.5872
X2.8799Y-4.1872
X3.0581Y-3.9972
X3.0581Y-4.2972
X3.0581Y-3.8972
X3.0581Y-4.4972
X3.0581Y-3.5972
X3.0581Y-3.4972
X3.0581Y-3.7972
X3.0581Y-4.0972
X3.0581Y-4.3972
X3.0581Y-4.5972
X3.0581Y-4.1972
X3.0581Y-3.6972
X3.749Y-4.2933
X3.749Y-3.8933
X3.749Y-4.0933
X3.749Y-3.7933
X3.749Y-3.9933
X3.749Y-4.1933
X3.9293Y-3.9096
X3.9293Y-4.0096
X3.9293Y-4.1096
X3.9293Y-4.2096
X3.9293Y-4.3096
X3.9293Y-4.4096
X4.6203Y-3.6057
X4.6203Y-3.7057
X4.6203Y-3.8057
X4.6203Y-3.9057
X4.6203Y-4.0057
X4.6203Y-4.1057
X4.6203Y-4.2057
X4.6203Y-4.3057
X4.6203Y-4.4057
X4.6203Y-4.5057
X4.6203Y-4.6057
X4.6203Y-4.7057
X4.7829Y-2.3612
X4.7829Y-2.4612
X4.7829Y-2.5612
X4.7894Y-3.0925
X4.7894Y-3.1925
X4.7894Y-3.2925
X4.7894Y-3.3925
X4.7894Y-3.4925
X4.7894Y-3.5925
X4.7894Y-3.6925
X4.7894Y-3.7925
X4.7894Y-3.8925
X4.7894Y-3.9925
X4.7894Y-4.0925
X4.7894Y-4.1925
X4.7894Y-4.2925
X4.7894Y-4.3925
X4.7894Y-4.4925
X4.8829Y-2.3612
X4.8829Y-2.4612
X4.8829Y-2.5612
X4.8894Y-3.0925
X4.8894Y-3.1925
X4.8894Y-3.2925
X4.8894Y-3.3925
X4.8894Y-3.4925
X4.8894Y-3.5925
X4.8894Y-3.6925
X4.8894Y-3.7925
X4.8894Y-3.8925
X4.8894Y-3.9925
X4.8894Y-4.0925
X4.8894Y-4.1925
X4.8894Y-4.2925
X4.8894Y-4.3925
X4.8894Y-4.4925
T3
X4.0138Y-2.2862
X4.0138Y-2.5862
X4.0138Y-2.7862
X4.0138Y-3.2862
X4.0138Y-2.1862
X4.0138Y-2.4862
X4.0138Y-2.6862
X4.0138Y-2.9862
X4.0138Y-3.1862
X4.0138Y-3.3862
X4.0138Y-3.4862
X4.0138Y-2.8862
X4.0138Y-3.0862
X4.0138Y-2.3862
X4.5138Y-2.2862
X4.6138Y-3.2862
X4.6138Y-2.5862
X4.6138Y-2.7862
X4.6138Y-2.1862
X4.6138Y-2.2862
X4.6138Y-2.4862
X4.6138Y-2.6862
X4.6138Y-2.9862
X4.6138Y-3.1862
X4.6138Y-3.4862
X4.6138Y-2.3862
X4.6138Y-2.8862
X4.6138Y-3.0862
X4.6138Y-3.3862
T4
X2.4833Y-2.8793
X2.4833Y-2.7415
X2.4833Y-3.4138
X2.4833Y-3.7494
X2.4833Y-4.085
X2.4833Y-4.4207
X2.4833Y-4.7563
X2.4833Y-3.5516
X2.4833Y-3.8872
X2.4833Y-4.2228
X2.4833Y-4.5585
X2.4833Y-4.8941
X2.4833Y-3.0781
X2.4833Y-3.2159
X2.915Y-2.4469
X2.9443Y-5.1585
X3.0528Y-2.4469
X3.0821Y-5.1585
X3.2506Y-2.4469
X3.2799Y-5.1585
X3.3884Y-2.4469
X3.4177Y-5.1585
X3.6156Y-5.1585
X3.7533Y-5.1585
X3.9508Y-5.1585
X4.0886Y-5.1585
X4.2864Y-5.1585
X4.4242Y-5.1585
X4.622Y-5.1585
X4.7598Y-5.1585
X5.1919Y-3.0783
X5.1919Y-3.414
X5.1919Y-3.7496
X5.1919Y-4.0852
X5.1919Y-4.4209
X5.1919Y-4.7565
X5.1919Y-3.2161
X5.1919Y-3.5518
X5.1919Y-3.8874
X5.1919Y-4.223
X5.1919Y-4.5587
X5.1919Y-4.8943
X5.1919Y-2.7427
X5.1919Y-2.8805
T5
X2.3819Y-2.3327
X2.3819Y-5.2549
X5.2913Y-2.3317
X5.2933Y-5.2549
T2
G00X3.5731Y-2.5138
M15
G01X3.5731Y-2.5925
M16
G05
G00X3.7975Y-2.435
M15
G01X3.7188Y-2.435
M16
G05
G00X3.7975Y-2.6713
M15
G01X3.7188Y-2.6713
M16
G05
M30
